<?xml version="1.0" standalone="no"?>
<!DOCTYPE svg PUBLIC "-//W3C//DTD SVG 20010904//EN"
 "http://www.w3.org/TR/2001/REC-SVG-20010904/DTD/svg10.dtd">
<svg version="1.0" xmlns="http://www.w3.org/2000/svg"
 width="1028.000000pt" height="1028.000000pt" viewBox="0 0 1028.000000 1028.000000"
 preserveAspectRatio="xMidYMid meet">
<metadata>
Created by potrace 1.14, written by Peter Selinger 2001-2017
</metadata>
<g transform="translate(0.000000,1028.000000) scale(0.100000,-0.100000)"
fill="#000000" stroke="none">
<path d="M4515 10064 c-121 -7 -256 -18 -300 -23 -44 -6 -114 -13 -155 -17
-41 -4 -87 -13 -102 -20 -15 -8 -40 -14 -55 -14 -25 0 -100 -14 -208 -40 -136
-32 -212 -52 -227 -61 -10 -5 -31 -9 -47 -9 -17 0 -33 -4 -36 -10 -3 -5 -19
-10 -35 -10 -16 0 -32 -4 -35 -10 -3 -5 -17 -10 -29 -10 -28 0 -164 -43 -221
-70 -22 -11 -74 -31 -115 -45 -41 -14 -100 -39 -130 -55 -30 -16 -77 -36 -105
-45 -65 -21 -136 -54 -155 -71 -9 -7 -56 -34 -105 -58 -50 -25 -101 -52 -115
-60 -14 -9 -59 -31 -101 -51 -41 -19 -86 -46 -99 -60 -13 -14 -28 -25 -33 -25
-5 0 -27 -13 -50 -28 -23 -16 -67 -45 -97 -66 -30 -20 -86 -63 -125 -96 -38
-33 -75 -60 -81 -60 -5 0 -23 -14 -40 -31 -16 -17 -51 -46 -79 -64 -83 -56
-595 -592 -595 -624 0 -4 -21 -33 -47 -63 -62 -72 -74 -87 -97 -123 -11 -16
-28 -39 -39 -50 -10 -11 -26 -33 -34 -50 -9 -16 -37 -56 -62 -87 -25 -31 -57
-79 -70 -105 -14 -26 -32 -57 -42 -68 -9 -11 -38 -60 -64 -110 -26 -49 -58
-102 -70 -116 -12 -15 -32 -55 -45 -90 -13 -35 -32 -76 -41 -90 -10 -15 -30
-60 -45 -100 -15 -41 -39 -101 -54 -134 -25 -52 -58 -144 -91 -251 -5 -17 -9
-40 -9 -52 0 -12 -9 -37 -19 -56 -23 -40 -39 -91 -52 -161 -5 -27 -14 -70 -19
-95 -5 -25 -16 -83 -25 -130 -9 -47 -22 -105 -30 -130 -7 -25 -18 -81 -25
-125 -6 -44 -16 -107 -22 -140 -22 -125 -30 -1202 -10 -1390 23 -206 34 -281
47 -310 13 -29 34 -110 56 -220 16 -75 39 -143 71 -206 15 -31 28 -62 28 -69
0 -33 51 -172 101 -272 5 -10 9 -26 9 -37 0 -33 70 -190 94 -210 9 -7 16 -17
16 -22 0 -8 33 -78 103 -214 19 -38 43 -88 53 -110 9 -22 34 -65 54 -96 20
-31 40 -67 43 -80 4 -13 17 -35 30 -49 13 -14 47 -63 77 -110 29 -47 61 -94
71 -105 9 -11 27 -40 40 -65 12 -25 37 -61 55 -80 18 -19 43 -54 56 -76 42
-76 140 -208 223 -299 44 -49 96 -109 115 -131 98 -117 249 -279 285 -305 22
-16 105 -90 185 -163 173 -159 260 -230 360 -291 8 -5 36 -27 61 -47 26 -21
50 -38 56 -38 5 0 25 -16 44 -36 18 -19 57 -47 86 -61 29 -14 60 -33 70 -43
10 -9 43 -29 73 -44 81 -40 133 -69 167 -94 17 -12 36 -22 42 -22 6 0 48 -19
92 -43 151 -79 194 -100 256 -121 33 -12 67 -27 75 -33 7 -6 31 -16 53 -22 22
-7 50 -17 63 -22 52 -21 69 -27 112 -39 25 -7 61 -20 80 -30 49 -25 112 -45
205 -65 44 -9 90 -21 103 -26 13 -5 33 -9 46 -9 12 0 26 -3 30 -7 13 -13 81
-33 115 -33 19 0 57 -7 85 -14 28 -8 98 -20 156 -27 58 -6 125 -16 150 -22 25
-5 253 -11 507 -14 387 -4 480 -2 570 11 60 9 133 16 164 16 31 0 69 4 85 10
16 5 76 14 134 20 162 16 194 21 205 31 5 5 23 9 40 9 17 0 35 4 41 10 9 9
128 43 209 60 93 19 170 44 203 66 20 14 50 24 69 24 18 0 41 4 51 9 9 5 51
19 92 31 41 13 86 28 100 35 33 17 82 39 150 65 30 12 98 42 150 67 52 25 104
48 115 53 29 10 106 47 135 63 22 13 79 40 150 70 14 6 32 17 40 23 8 7 47 28
85 48 39 20 85 50 104 66 22 20 45 30 65 30 67 0 114 27 251 143 18 15 39 27
47 27 8 0 29 16 48 35 18 19 48 39 65 45 17 6 49 28 70 50 22 22 44 40 51 40
6 0 18 7 25 17 8 9 26 24 41 33 29 17 128 105 258 227 42 40 81 73 87 73 6 0
28 20 49 45 22 25 58 67 82 94 23 26 42 52 42 56 0 8 30 42 185 213 47 51 85
98 85 105 0 7 20 35 45 64 25 28 45 54 45 58 0 4 18 27 40 51 22 24 40 48 40
54 0 6 8 23 18 38 10 15 36 54 59 87 22 33 49 78 60 100 12 22 47 90 78 150
156 298 228 444 240 490 7 28 27 88 44 135 16 47 40 114 52 150 12 36 30 88
40 115 11 28 19 58 19 67 0 9 5 20 10 23 5 3 10 17 10 29 0 13 6 29 14 35 8 7
16 31 19 54 2 23 16 89 30 147 13 58 32 157 42 220 9 63 20 119 24 125 32 39
65 590 66 1070 0 445 -18 694 -59 789 -27 65 -96 329 -96 370 0 12 -9 36 -20
54 -11 18 -20 41 -20 52 0 10 -4 22 -10 25 -5 3 -10 15 -10 26 0 10 -4 27 -9
37 -5 9 -17 44 -26 77 -10 33 -26 76 -36 95 -9 19 -32 67 -49 105 -52 114 -64
135 -82 152 -10 9 -18 25 -18 35 0 10 -11 40 -25 66 -14 26 -25 52 -25 58 0 6
-15 31 -33 55 -18 24 -39 60 -47 79 -8 19 -33 68 -57 108 -24 41 -43 76 -43
78 0 8 -54 89 -82 122 -15 18 -28 39 -28 46 0 7 -9 21 -21 32 -12 10 -29 33
-38 50 -24 47 -107 170 -130 193 -10 10 -35 44 -55 75 -20 31 -40 56 -44 56
-5 0 -14 11 -20 24 -20 44 -420 452 -506 516 -26 19 -62 49 -79 67 -18 17 -55
43 -83 57 -28 14 -57 33 -65 42 -7 8 -36 27 -63 41 -28 14 -82 46 -121 72 -87
57 -118 71 -162 71 -23 0 -46 10 -71 29 -20 16 -74 48 -119 71 -46 23 -85 46
-88 51 -10 14 -272 139 -420 199 -44 18 -84 37 -89 41 -6 5 -18 9 -28 9 -10 0
-26 4 -36 9 -9 6 -49 22 -89 36 -39 14 -77 32 -83 40 -6 7 -23 16 -38 19 -68
16 -236 71 -362 118 -30 12 -73 25 -95 29 -22 4 -60 13 -85 19 -25 7 -62 14
-83 17 -20 3 -40 9 -43 14 -3 5 -18 9 -33 9 -15 0 -31 3 -35 8 -4 4 -42 12
-84 19 -42 6 -99 17 -127 23 -27 6 -81 15 -120 20 -107 15 -158 25 -180 37
-20 11 -95 23 -262 42 -43 5 -141 10 -217 11 -77 1 -150 6 -163 11 -34 13
-374 9 -638 -7z"/>
</g>
</svg>
