<?xml version="1.0" standalone="no"?>
<!DOCTYPE svg PUBLIC "-//W3C//DTD SVG 20010904//EN"
 "http://www.w3.org/TR/2001/REC-SVG-20010904/DTD/svg10.dtd">
<svg version="1.0" xmlns="http://www.w3.org/2000/svg"
 width="700.000000pt" height="700.000000pt" viewBox="0 0 700.000000 700.000000"
 preserveAspectRatio="xMidYMid meet">
<metadata>
Created by potrace 1.14, written by Peter Selinger 2001-2017
</metadata>
<g transform="translate(0.000000,700.000000) scale(0.100000,-0.100000)"
fill="#000000" stroke="none">
<path d="M1 6914 c0 -11 3 -14 6 -6 3 7 2 16 -1 19 -3 4 -6 -2 -5 -13z"/>
<path d="M1 6481 c0 -222 1 -402 4 -400 8 8 12 741 4 774 -4 17 -7 -152 -8
-374z"/>
<path d="M3189 6712 c-235 -2 -237 -2 -243 -25 -12 -44 -10 -44 119 -49 114
-4 126 -6 150 -28 39 -37 31 -99 -18 -143 -26 -23 -89 -39 -136 -35 l-38 3 12
55 c7 30 16 70 20 88 l8 32 -59 0 c-33 0 -64 -4 -70 -8 -9 -6 -64 -218 -64
-246 0 -4 64 -6 143 -4 115 4 153 9 198 27 121 47 175 111 171 205 -1 27 0 47
3 45 2 -3 26 -70 54 -151 27 -81 56 -158 63 -173 l14 -26 98 113 c53 62 125
144 159 181 l61 69 121 -4 c81 -2 129 -8 149 -18 100 -51 8 -190 -126 -190
-35 0 -48 4 -48 15 0 13 22 105 36 147 5 16 -2 18 -64 18 l-69 0 -31 -122
c-16 -68 -26 -127 -22 -132 14 -14 259 0 315 18 133 43 218 147 185 227 -36
86 -93 106 -336 114 l-181 7 -27 -25 c-14 -13 -26 -27 -26 -30 0 -3 -16 -23
-35 -44 -42 -45 -105 -137 -105 -153 0 -6 -4 -8 -10 -5 -5 3 -10 14 -10 24 0
20 -57 211 -65 219 -7 7 -29 7 -296 4z"/>
<path d="M550 6590 c-19 -37 -24 -40 -61 -40 -119 0 -183 -120 -108 -205 l31
-35 -27 -64 c-15 -35 -25 -69 -21 -74 7 -11 213 -16 239 -6 9 3 17 12 17 20 0
11 -23 14 -110 14 -60 0 -110 2 -110 5 0 2 10 24 21 49 21 42 24 44 74 48 122
10 174 122 95 203 l-32 33 21 40 c19 37 19 52 0 52 -5 0 -18 -18 -29 -40z
m-10 -75 c113 -58 56 -209 -72 -192 -106 14 -130 144 -36 190 41 21 71 21 108
2z"/>
<path d="M435 6475 c-14 -13 -25 -36 -25 -50 0 -35 42 -75 78 -75 32 0 82 33
69 46 -4 5 -17 3 -27 -4 -42 -26 -90 -9 -90 33 0 44 56 61 92 28 13 -11 22
-13 29 -6 15 15 -37 53 -73 53 -17 0 -39 -10 -53 -25z"/>
<path d="M423 6606 c-129 -41 -182 -171 -113 -279 29 -47 60 -62 60 -30 0 9
-9 27 -21 39 -11 12 -24 38 -29 59 -20 89 43 169 147 183 33 5 48 12 48 22 0
20 -40 22 -92 6z"/>
<path d="M600 6556 c0 -7 7 -19 16 -27 47 -39 58 -125 21 -180 -26 -40 -97
-79 -144 -79 -35 0 -53 -17 -32 -31 20 -13 88 -1 133 25 109 59 139 186 64
271 -31 36 -58 46 -58 21z"/>
<path d="M3135 6245 c-262 -29 -357 -67 -273 -109 161 -81 1031 -87 1270 -10
62 20 77 38 46 58 -27 17 -120 41 -198 51 -30 4 -64 10 -75 12 -51 12 -656 11
-770 -2z m108 -31 c11 -11 -47 -105 -63 -102 -8 2 -25 21 -37 43 -26 45 -28
55 -12 55 14 0 39 -25 39 -39 0 -23 22 -10 31 19 10 28 28 38 42 24z m107 -49
c0 -42 -3 -55 -15 -55 -11 0 -15 12 -15 48 0 27 3 52 7 55 16 17 23 3 23 -48z
m346 42 c4 -4 -2 -7 -14 -7 -11 0 -24 -4 -27 -10 -4 -6 5 -10 20 -10 33 0 29
-22 -6 -31 -23 -7 -20 -11 10 -13 8 -1 16 -7 19 -14 2 -8 -9 -12 -36 -12 l-40
0 -4 51 c-1 28 -2 52 0 53 5 6 71 0 78 -7z m199 -1 c26 -11 35 -21 35 -39 0
-32 -20 -48 -69 -54 -54 -7 -93 17 -89 55 2 21 11 30 38 39 45 15 45 15 85 -1z
m-361 -12 c36 -35 7 -77 -55 -78 l-44 -1 -3 48 -3 47 45 0 c27 0 51 -6 60 -16z"/>
<path d="M3823 6184 c-36 -15 3 -60 43 -50 19 5 25 12 22 29 -3 22 -37 33 -65
21z"/>
<path d="M3460 6166 c0 -31 12 -39 35 -22 23 16 13 46 -15 46 -15 0 -20 -7
-20 -24z"/>
<path d="M0 5537 c0 -396 3 -517 12 -517 9 0 9 -3 0 -12 -14 -14 -18 -664 -3
-670 4 -1 12 -14 16 -28 7 -24 7 -24 -9 -5 -14 19 -15 16 -16 -47 0 -56 3 -66
15 -62 9 4 15 0 15 -10 0 -9 -7 -16 -15 -16 -12 0 -15 -19 -15 -109 0 -60 5
-122 11 -138 7 -19 7 -29 0 -31 -7 -2 -11 -82 -11 -240 0 -157 4 -232 10 -222
7 11 9 2 9 -30 -1 -37 -2 -41 -9 -20 -4 14 -8 -741 -9 -1677 l-1 -1703 3500 0
3500 0 0 2893 0 2892 -3052 -3 c-1679 -1 -3250 -4 -3491 -5 l-437 -2 -2 95
c-1 52 -2 111 -3 132 0 20 -3 40 -7 44 -5 4 -8 -225 -8 -509z m1428 58 c132
-31 294 -135 300 -191 3 -27 -7 -40 -88 -112 -50 -45 -99 -82 -109 -82 -9 0
-28 11 -41 25 -32 34 -110 84 -152 96 -18 5 -68 10 -110 10 -93 1 -159 -24
-180 -68 -39 -79 13 -109 227 -133 127 -14 253 -44 308 -71 23 -12 44 -21 46
-21 1 1 4 25 5 52 1 33 7 54 16 60 22 14 184 12 198 -2 9 -9 21 -7 54 8 32 14
65 19 133 19 77 -1 99 -5 150 -28 106 -49 185 -154 208 -278 l11 -56 36 15
c24 11 67 16 135 17 116 0 181 -18 250 -70 42 -32 43 -33 47 -12 6 35 -6 70
-26 73 -44 6 -46 10 -46 102 0 94 8 112 47 112 22 0 23 4 23 68 0 39 5 75 13
84 10 14 143 58 174 58 32 0 43 -32 43 -120 l0 -89 42 1 c56 1 68 -18 68 -105
0 -92 -9 -107 -65 -107 l-45 0 0 -126 c0 -69 4 -134 10 -144 5 -10 35 -33 65
-50 38 -22 55 -38 55 -52 0 -34 -69 -147 -95 -154 -23 -6 -83 20 -137 57 -33
24 -38 24 -38 0 0 -28 -57 -131 -93 -169 -77 -79 -186 -117 -319 -110 -114 7
-194 44 -266 123 -52 56 -92 148 -92 208 0 26 -3 28 -22 22 -110 -33 -185 -33
-285 -1 -23 7 -23 7 -23 -103 0 -131 0 -131 -110 -131 -110 0 -110 0 -110 135
0 63 -2 115 -5 115 -2 0 -32 -18 -66 -40 -153 -98 -391 -122 -578 -57 -121 42
-301 169 -301 212 0 22 166 183 198 191 17 5 33 -4 71 -39 26 -25 67 -55 91
-67 136 -69 350 -47 396 41 39 77 -12 109 -227 139 -237 34 -332 66 -405 139
-97 95 -116 264 -46 394 49 92 177 182 298 211 80 19 282 20 362 1z m-1395
-78 c3 -8 1 -20 -4 -28 -6 -10 -9 -7 -9 14 0 29 5 35 13 14z m-6 -249 c-2 -13
-4 -5 -4 17 -1 22 1 32 4 23 2 -10 2 -28 0 -40z m4593 28 c7 -9 12 -50 12
-106 0 -81 2 -91 16 -84 10 3 44 13 77 21 177 43 336 -94 352 -303 6 -73 6
-74 34 -74 l29 0 0 74 c0 47 5 77 13 83 6 6 49 20 95 33 107 31 111 27 115
-95 l2 -90 40 -3 c60 -5 65 -14 65 -108 0 -74 -2 -84 -22 -98 -12 -9 -37 -16
-55 -16 l-33 0 6 -117 c7 -161 6 -158 69 -194 67 -38 68 -49 19 -142 -42 -80
-56 -83 -146 -35 -76 40 -142 113 -157 172 -6 25 -11 106 -11 180 0 111 -3
136 -14 136 -8 0 -21 3 -30 6 -14 5 -16 -3 -16 -54 0 -81 -15 -92 -127 -92
-71 0 -84 3 -93 19 -6 12 -10 101 -10 221 0 162 -3 207 -15 231 -40 77 -170
59 -194 -27 -6 -21 -8 -112 -6 -217 5 -200 -1 -227 -50 -227 -23 0 -25 -4 -25
-47 0 -148 -84 -278 -219 -342 -50 -23 -68 -26 -166 -26 -100 0 -115 3 -165
28 -86 42 -148 108 -136 144 4 10 33 38 66 61 33 24 60 47 59 50 0 4 -19 21
-42 37 -53 39 -103 112 -123 183 -25 84 -16 220 19 293 33 69 99 132 175 167
49 23 70 27 152 27 67 0 103 -5 123 -16 26 -14 32 -14 62 0 l33 16 4 156 c2
113 7 160 17 172 18 23 182 25 201 3z m-880 -61 c55 -28 75 -101 45 -159 -10
-18 -12 -33 -6 -40 5 -6 11 -162 12 -347 3 -274 1 -339 -10 -352 -11 -14 -32
-17 -102 -17 -77 0 -90 2 -99 19 -14 27 -14 673 0 687 7 7 5 23 -6 49 -28 68
-5 143 51 166 32 13 84 10 115 -6z m-3700 -117 c0 -45 -16 -32 -17 14 -2 30 1
38 7 28 5 -8 10 -27 10 -42z m3435 -142 c19 -13 20 -31 23 -333 1 -175 5 -323
7 -330 2 -6 29 -28 59 -47 67 -43 70 -59 24 -141 -48 -84 -55 -87 -136 -45
-78 41 -146 106 -164 158 -16 49 -24 692 -9 721 13 23 33 28 117 30 38 0 67
-4 79 -13z m2889 -253 c42 -12 73 -30 111 -65 101 -92 117 -204 55 -371 -12
-32 -86 -155 -165 -273 l-143 -214 204 0 205 0 -3 -91 -3 -91 -360 -1 -360 -2
-3 30 c-2 24 21 65 117 210 66 99 123 185 128 190 22 28 144 215 162 251 29
55 46 141 37 186 -9 49 -53 80 -121 86 -64 5 -118 -20 -168 -78 l-35 -41 -58
47 c-33 26 -63 51 -68 55 -5 5 3 26 20 50 89 128 263 176 448 122z m-6319 -10
c-2 -16 -4 -38 -4 -50 -1 -13 -4 -23 -8 -23 -7 0 -8 18 -4 80 0 11 5 20 10 20
5 0 8 -12 6 -27z m-2 -200 c0 -92 -4 -123 -14 -123 -7 0 -9 20 -5 60 3 34 1
71 -4 84 -5 13 -6 27 -3 30 13 13 27 -15 26 -51z m-13 -253 c0 -5 -2 -10 -4
-10 -3 0 -8 5 -11 10 -3 6 -1 10 4 10 6 0 11 -4 11 -10z m1547 -105 c9 3 20 0
25 -7 5 -8 8 -9 8 -2 0 7 11 9 25 6 14 -2 25 -7 25 -11 0 -11 40 -8 40 4 0 5
5 2 11 -9 9 -15 13 -16 20 -5 7 12 9 12 9 0 0 -11 3 -11 17 0 15 12 16 12 11
-3 -6 -13 2 -17 43 -20 27 -1 49 0 49 4 0 4 6 5 14 2 8 -3 16 2 19 13 3 13 5
11 6 -7 1 -20 3 -22 11 -10 9 13 10 13 10 0 0 -12 2 -12 9 -1 6 9 11 10 15 3
4 -6 13 -9 21 -5 9 3 15 -1 15 -8 0 -10 3 -10 12 -1 17 17 41 15 35 -2 -4 -9
3 -16 19 -19 19 -3 24 0 25 17 2 19 2 19 6 -2 3 -15 10 -22 19 -18 9 3 14 -1
15 -12 0 -10 3 -12 6 -4 7 18 20 15 26 -8 4 -16 14 -20 46 -20 38 0 41 -2 42
-27 1 -16 1 -32 0 -36 -1 -5 3 -6 7 -3 5 3 8 17 7 31 -2 14 1 27 6 31 5 3 9
-4 9 -15 0 -14 5 -19 14 -15 10 4 16 -3 18 -23 2 -16 8 -27 16 -25 6 1 12 -6
13 -15 0 -11 3 -13 6 -5 2 6 15 12 29 12 18 0 22 -4 17 -17 -5 -12 -2 -15 10
-10 12 5 17 1 17 -13 0 -16 7 -20 30 -20 19 0 30 -5 30 -14 0 -24 28 -27 33
-3 3 15 5 12 6 -10 1 -30 4 -33 32 -33 26 0 29 -3 24 -20 -5 -15 0 -23 19 -31
15 -7 28 -24 32 -43 7 -31 7 -31 15 -6 7 23 7 24 8 3 1 -16 5 -21 17 -16 10 4
15 1 14 -8 -1 -8 -2 -23 0 -34 l1 -20 8 20 c7 17 9 15 16 -15 7 -30 9 -32 16
-15 6 17 8 15 8 -11 1 -29 3 -31 31 -28 17 2 30 -1 30 -6 0 -6 -8 -10 -17 -11
-15 0 -15 -2 2 -8 11 -5 26 -6 33 -4 6 3 12 0 12 -7 0 -6 -4 -9 -8 -6 -4 2
-14 1 -22 -5 -11 -6 -4 -9 23 -9 20 0 37 -4 37 -10 0 -5 -7 -7 -15 -4 -8 4
-15 1 -15 -5 0 -6 14 -11 31 -11 24 0 30 -4 25 -15 -3 -8 -1 -15 4 -15 6 0 10
7 10 15 0 8 5 15 10 15 6 0 8 -11 6 -25 -3 -13 0 -27 5 -30 5 -4 9 8 9 24 0
17 4 31 9 31 4 0 7 -11 6 -25 -2 -14 1 -27 6 -31 5 -3 9 2 9 10 0 9 7 16 15
16 8 0 15 7 15 15 0 21 20 19 21 -2 1 -17 2 -17 6 0 2 9 11 17 18 17 7 0 16 8
18 18 3 9 5 2 6 -16 1 -20 5 -31 11 -27 6 4 8 11 5 16 -4 5 1 9 9 9 9 0 16 7
16 15 0 21 20 19 21 -2 1 -17 2 -17 6 0 3 13 15 17 56 17 40 0 48 3 39 12 -7
7 -12 19 -11 28 0 10 3 9 9 -5 7 -17 9 -17 9 -2 1 15 24 21 68 16 4 0 10 8 14
18 7 17 8 17 8 1 1 -10 6 -18 12 -18 6 0 9 7 5 15 -4 11 1 15 19 15 17 0 25
-6 26 -17 0 -13 3 -12 10 5 5 13 6 29 3 35 -3 7 1 4 9 -5 16 -21 77 -25 77 -5
0 9 27 12 108 10 145 -2 149 -6 12 -13 -106 -6 -100 -6 78 -8 163 -2 192 -4
192 -17 0 -11 12 -15 50 -15 36 0 50 -4 50 -14 0 -18 33 -15 42 4 5 12 7 12 7
-2 1 -10 6 -18 11 -18 6 0 10 8 10 18 1 11 6 6 15 -13 11 -24 14 -26 15 -10 1
19 1 19 14 2 11 -14 15 -15 19 -5 4 8 6 7 6 -4 1 -10 6 -18 12 -18 5 0 8 4 4
9 -3 5 -1 12 5 16 5 3 10 -1 10 -9 0 -9 7 -16 15 -16 8 0 15 -7 15 -15 0 -8 7
-15 15 -15 8 0 16 -8 16 -17 1 -17 2 -17 6 0 5 21 23 23 23 2 0 -8 7 -15 15
-15 8 0 15 -7 15 -16 0 -8 5 -12 10 -9 6 4 8 11 5 16 -4 5 6 8 22 8 17 -1 21
-3 11 -6 -28 -7 -21 -20 10 -19 16 0 26 -4 24 -12 -1 -7 5 -12 13 -12 8 0 15
-7 15 -15 0 -15 13 -19 58 -17 13 1 22 -5 22 -13 0 -8 5 -15 10 -15 6 0 10 -7
10 -15 0 -21 18 -19 23 3 4 13 5 11 6 -5 1 -15 -5 -23 -16 -24 -12 0 -8 -4 10
-11 15 -5 27 -14 27 -19 0 -5 7 -9 15 -9 8 0 15 -7 15 -15 0 -9 9 -15 25 -15
21 0 25 -5 26 -32 1 -18 3 -25 6 -15 2 9 8 17 13 17 5 0 6 -8 3 -17 -5 -12 -2
-15 10 -10 12 5 17 1 18 -13 3 -39 5 -45 17 -42 11 2 16 -17 13 -45 -1 -7 3
-13 9 -13 5 0 10 14 10 32 0 35 7 34 14 -3 7 -36 7 -36 16 -14 7 17 9 14 9
-14 1 -25 5 -32 16 -27 8 3 15 1 15 -4 0 -6 -7 -10 -15 -10 -8 0 -15 -5 -15
-11 0 -6 7 -9 15 -5 8 3 15 1 15 -4 0 -5 -8 -11 -17 -13 -10 -3 -3 -5 14 -6
30 -1 32 -3 29 -31 -3 -24 0 -30 15 -30 25 0 26 -40 2 -41 -15 0 -15 -2 2 -8
11 -5 23 -7 28 -4 4 2 7 -1 7 -6 0 -6 -8 -11 -17 -11 -18 0 -8 -15 10 -15 7 0
11 -9 9 -20 -2 -19 -2 -19 11 -2 17 21 28 22 21 2 -4 -10 0 -15 12 -16 17 0
17 -1 -1 -8 -11 -5 -26 -6 -32 -4 -7 3 -13 0 -13 -6 0 -6 7 -11 15 -11 8 0 15
-7 15 -15 0 -8 8 -15 18 -16 11 -1 9 -4 -8 -9 -24 -8 -25 -8 -2 -9 13 -1 22
-7 21 -13 -4 -32 2 -48 19 -49 16 -1 16 -2 0 -6 -10 -2 -18 -9 -18 -14 0 -6 4
-8 9 -4 5 3 12 1 16 -5 3 -5 -1 -10 -9 -10 -9 0 -16 -5 -16 -11 0 -5 3 -8 8
-6 4 3 16 1 27 -4 16 -6 13 -8 -15 -9 -32 -1 -33 -2 -12 -11 13 -5 28 -7 33
-3 5 3 9 0 9 -5 0 -6 -7 -11 -15 -11 -8 0 -15 -9 -15 -20 0 -11 6 -20 13 -20
10 0 14 -15 14 -52 1 -117 1 -116 31 -121 27 -4 27 -4 -3 -6 l-30 -1 0 -125
c0 -105 -2 -125 -15 -125 -13 0 -13 -1 0 -10 13 -9 13 -11 0 -20 -10 -6 -11
-10 -2 -10 6 0 12 -5 12 -11 0 -5 -4 -7 -10 -4 -5 3 -10 1 -10 -4 0 -6 6 -11
13 -12 6 0 3 -4 -8 -9 -17 -7 -17 -9 -2 -9 9 -1 17 -6 17 -12 0 -5 -4 -7 -10
-4 -5 3 -10 1 -10 -4 0 -6 6 -11 13 -11 8 0 7 -4 -3 -10 -21 -14 -28 -12 -33
8 -4 13 -5 11 -6 -5 -1 -18 5 -23 27 -24 18 -1 21 -3 9 -6 -11 -3 -16 -11 -13
-19 3 -8 1 -14 -4 -14 -6 0 -10 8 -11 18 0 14 -1 14 -8 -3 -5 -11 -7 -44 -7
-72 1 -44 -1 -53 -16 -53 -11 0 -15 -5 -12 -15 4 -8 1 -15 -5 -15 -6 0 -11 8
-12 18 0 14 -2 14 -8 -3 -4 -11 -6 -32 -5 -47 3 -21 -1 -28 -14 -29 -14 0 -14
-2 3 -9 17 -7 17 -9 3 -9 -19 -1 -26 -21 -8 -21 6 0 10 -4 10 -10 0 -5 -5 -9
-12 -7 -12 2 -14 -3 -17 -38 0 -8 -8 -15 -16 -15 -9 0 -12 -6 -9 -15 4 -11 -1
-15 -17 -16 l-24 -1 25 -8 c24 -8 24 -11 -2 -14 -7 0 -13 -8 -13 -16 -1 -8 -6
-14 -13 -13 -7 2 -12 -4 -12 -12 0 -21 -18 -19 -23 3 -3 9 -5 -2 -6 -25 -1
-31 -5 -43 -16 -43 -8 0 -15 -7 -15 -15 0 -8 -7 -15 -15 -15 -8 0 -15 -5 -15
-11 0 -5 4 -8 9 -4 5 3 12 1 16 -5 6 -10 -15 -15 -44 -10 -8 1 -12 -4 -9 -12
3 -7 2 -22 -3 -33 -6 -17 -8 -17 -8 -2 -1 21 -21 23 -21 2 0 -8 -8 -15 -17
-16 -12 -1 -10 -4 7 -9 17 -5 19 -8 8 -9 -10 -1 -18 -8 -18 -16 0 -8 -7 -15
-15 -15 -8 0 -15 -8 -16 -17 0 -15 -2 -15 -9 2 -7 17 -9 17 -9 3 -1 -10 -8
-18 -16 -18 -8 0 -15 -8 -15 -17 0 -15 -2 -16 -10 -3 -8 12 -10 9 -10 -12 0
-16 -4 -28 -9 -28 -5 0 -12 12 -14 28 -3 22 -4 20 -6 -10 -1 -37 -2 -38 -38
-39 -21 0 -32 -3 -25 -6 6 -2 12 -9 12 -15 0 -6 -7 -8 -15 -4 -11 4 -15 -2
-15 -24 0 -27 -3 -30 -34 -30 -24 0 -36 5 -39 17 -3 10 -5 3 -6 -14 -1 -34
-20 -47 -22 -15 -1 9 -5 1 -9 -18 -5 -19 -6 -38 -4 -42 3 -5 0 -8 -5 -8 -6 0
-11 17 -11 37 0 44 -8 40 -12 -5 -2 -31 -3 -32 -50 -32 -38 0 -46 -3 -42 -15
4 -8 1 -15 -5 -15 -6 0 -12 8 -12 18 -1 16 -2 16 -6 0 -2 -10 -9 -18 -14 -18
-5 0 -10 8 -10 18 -1 16 -2 16 -6 -1 -2 -9 -11 -17 -19 -17 -8 0 -15 -8 -15
-17 -1 -17 -2 -17 -6 0 -2 9 -9 17 -14 17 -6 0 -8 -4 -4 -9 3 -5 1 -12 -5 -16
-5 -3 -11 2 -11 12 -1 17 -2 17 -6 1 -3 -12 -15 -18 -36 -19 -27 0 -29 -2 -12
-9 l20 -9 -20 -1 c-11 -1 -29 -3 -40 -4 -11 -1 -33 -4 -50 -5 l-30 -3 30 -8
c22 -5 7 -8 -52 -9 -71 -1 -83 -3 -84 -18 -1 -17 -2 -17 -6 -1 -5 21 -53 25
-54 6 0 -10 -2 -10 -6 0 -2 6 -16 12 -30 12 -18 0 -24 -4 -19 -15 3 -8 1 -15
-4 -15 -6 0 -10 7 -10 15 0 8 -4 15 -10 15 -5 0 -7 -7 -4 -15 4 -8 1 -15 -5
-15 -6 0 -11 7 -11 15 0 9 -9 15 -25 15 -16 0 -25 -6 -25 -16 0 -8 -5 -12 -10
-9 -6 4 -8 11 -5 16 4 5 1 9 -4 9 -6 0 -12 -8 -12 -17 -1 -17 -2 -17 -6 -1 -6
23 -23 23 -24 1 -1 -16 -2 -16 -6 -2 -6 24 -41 31 -53 11 -8 -15 -9 -15 -10 1
0 11 -5 15 -11 11 -6 -3 -15 0 -20 7 -9 16 -10 16 -84 18 -42 1 -55 5 -55 16
0 10 -11 15 -35 15 -26 0 -35 4 -36 18 -1 16 -2 16 -6 0 -5 -22 -43 -24 -43
-3 0 9 -9 15 -24 15 -16 0 -27 7 -31 21 -5 16 -9 18 -15 9 -4 -7 -12 -10 -18
-6 -6 3 -13 -2 -15 -11 -3 -10 -5 -4 -6 14 -1 40 -21 54 -22 16 l-1 -28 -8 30
-7 30 -11 -25 c-11 -25 -11 -24 -11 9 -1 29 -3 32 -16 21 -12 -10 -15 -9 -15
6 -1 18 -1 18 -15 0 -14 -19 -15 -19 -15 6 0 15 -5 30 -12 34 -7 4 -8 3 -4 -4
4 -7 2 -12 -3 -12 -6 0 -11 7 -11 15 0 21 -18 19 -23 -2 -3 -10 -5 -3 -6 15
-1 20 -5 31 -11 27 -6 -4 -8 -11 -5 -16 4 -5 1 -9 -4 -9 -6 0 -11 15 -12 33
-1 30 -1 31 -9 7 -8 -24 -11 -24 -14 3 0 6 -8 12 -16 12 -8 0 -15 7 -15 15 -1
8 -6 14 -13 12 -7 -1 -12 5 -12 14 0 8 -4 12 -10 9 -5 -3 -10 2 -11 12 0 10
-3 13 -6 6 -8 -21 -23 -15 -23 10 0 18 -2 19 -10 7 -7 -12 -10 -8 -10 15 0 23
-3 27 -10 15 -8 -13 -10 -12 -10 3 0 9 -7 17 -15 17 -9 0 -15 9 -15 21 0 15
-5 19 -15 15 -11 -4 -15 1 -15 19 0 14 -4 25 -10 25 -5 0 -11 10 -11 23 l-2
22 -4 -22 c-7 -34 -23 -28 -24 10 0 25 -2 28 -8 13 -7 -19 -8 -19 -15 -1 -6
16 -9 17 -16 5 -8 -12 -10 -11 -10 6 0 22 -30 29 -42 10 -4 -6 -11 4 -15 24
-6 33 -7 34 -14 10 l-7 -25 -1 25 -2 25 -12 -23 c-7 -12 -16 -19 -20 -15 -11
11 -47 11 -47 0 0 -5 -6 -4 -14 2 -11 9 -15 9 -19 -1 -4 -10 -8 -10 -16 2 -9
12 -11 11 -11 -9 0 -20 -2 -21 -15 -11 -13 10 -15 9 -15 -11 0 -20 -2 -21 -11
-9 -9 12 -12 13 -16 1 -5 -11 -7 -11 -14 0 -6 10 -9 5 -9 -16 l-1 -30 -14 25
-14 25 -1 -25 c-1 -23 -2 -23 -10 -5 -8 19 -8 19 -18 -5 l-11 -25 -2 25 c-1
17 -3 20 -6 8 -3 -11 -14 -18 -28 -18 -13 0 -27 -5 -30 -10 -4 -6 -11 -8 -16
-5 -5 4 -9 -2 -10 -12 0 -16 -1 -16 -8 2 -8 19 -8 19 -19 0 -11 -20 -11 -20
-12 0 -1 17 -3 17 -12 -5 l-11 -25 -7 25 -8 25 -2 -25 -2 -25 -8 25 c-8 25 -8
25 -9 -5 -2 -29 -2 -29 -16 -11 -8 11 -15 15 -15 8 0 -6 -7 -9 -15 -6 -11 5
-15 -1 -16 -22 l-2 -29 -4 27 c-4 28 -23 40 -23 16 0 -10 -2 -10 -9 0 -6 11
-10 10 -16 -5 -7 -16 -9 -15 -15 7 l-8 25 -1 -25 c-2 -24 -2 -24 -16 -6 -14
19 -15 18 -15 -10 l-1 -29 -14 30 c-13 29 -13 30 -15 5 l-1 -25 -14 25 -14 25
-1 -25 c0 -17 -3 -21 -8 -12 -5 7 -16 10 -25 6 -10 -4 -17 -1 -17 6 0 7 -7 10
-15 6 -8 -3 -15 0 -16 7 0 9 -2 9 -6 -1 -2 -6 -10 -9 -16 -5 -21 13 -47 13
-47 0 0 -6 -7 -3 -15 7 -15 20 -15 20 -15 0 0 -16 -2 -17 -10 -4 -9 13 -11 13
-20 0 -8 -13 -10 -12 -11 5 0 13 -3 15 -6 6 -5 -11 -7 -11 -14 0 -8 12 -11 11
-19 -1 -6 -10 -10 -11 -10 -2 0 6 -11 12 -25 12 -16 0 -25 6 -25 15 0 10 -10
15 -27 15 -16 0 -35 4 -43 10 -9 6 -17 5 -22 -3 -5 -8 -8 -6 -8 6 0 9 -4 17
-10 17 -5 0 -10 -8 -10 -17 -1 -16 -2 -16 -15 1 -15 20 -15 20 -16 0 0 -16 -2
-16 -10 4 -5 13 -13 20 -19 17 -5 -3 -10 1 -10 9 0 22 -20 20 -21 -1 -1 -17
-2 -17 -6 0 -2 9 -8 17 -13 17 -5 0 -11 -8 -13 -17 -3 -10 -5 -3 -6 15 -1 20
-5 31 -11 27 -6 -4 -8 -11 -5 -16 4 -5 1 -9 -4 -9 -6 0 -11 8 -11 18 -1 15 -2
15 -15 -2 -15 -19 -15 -19 -15 2 0 22 -33 47 -50 37 -6 -3 -10 -1 -10 4 0 6
10 12 23 12 12 1 4 5 -18 8 -24 4 -39 11 -37 19 1 6 -2 12 -8 12 -5 0 -10 -7
-10 -17 0 -23 -9 -12 -14 18 -7 36 -7 36 -16 14 -7 -17 -9 -17 -9 -2 -1 9 -5
17 -10 17 -5 0 -12 -8 -14 -17 -3 -10 -5 -4 -6 14 -1 27 -4 31 -26 28 -22 -2
-25 2 -26 29 -1 17 -3 23 -6 13 -2 -9 -9 -17 -15 -17 -5 0 -8 7 -4 15 3 9 0
15 -9 15 -8 0 -15 7 -15 15 0 9 -9 15 -25 15 -16 0 -25 6 -25 15 0 8 -7 15
-15 15 -9 0 -15 9 -15 21 0 15 -5 19 -15 15 -8 -3 -15 -1 -15 4 0 5 8 11 18
13 10 3 6 5 -10 6 -18 1 -28 7 -28 16 0 8 -7 15 -16 15 -10 0 -14 6 -10 15 4
10 -1 15 -17 16 -21 0 -21 1 -2 9 18 8 17 9 -7 9 -16 1 -28 6 -28 12 0 5 4 8
9 4 5 -3 12 -1 16 5 3 5 -1 10 -9 10 -9 0 -16 7 -16 15 0 8 -7 15 -16 15 -8 0
-13 4 -9 9 3 5 1 12 -5 16 -5 3 -10 -2 -10 -11 0 -24 -9 -13 -14 17 -2 13 -9
23 -15 21 -6 -1 -11 2 -11 8 0 5 8 11 18 11 16 1 16 2 0 6 -12 3 -18 15 -19
36 -1 18 -3 24 -6 15 -7 -29 -23 -20 -23 13 0 24 -4 30 -15 25 -8 -3 -15 -1
-15 4 0 6 8 11 18 11 16 1 16 2 0 6 -21 5 -24 23 -5 23 9 0 9 2 0 8 -7 4 -17
26 -22 47 l-10 40 2 -42 c1 -24 -1 -43 -5 -43 -5 0 -8 7 -8 15 0 8 -8 16 -17
16 -17 1 -17 2 0 6 11 3 17 13 16 31 -2 24 -2 24 -6 5 -6 -31 -20 -29 -20 2 0
16 5 25 16 26 11 1 10 3 -4 7 l-20 5 20 8 c17 6 17 8 3 8 -16 1 -24 24 -19 54
0 4 -6 7 -14 7 -8 0 -15 5 -15 10 0 6 7 10 15 10 8 0 15 4 15 10 0 5 -7 7 -15
4 -10 -4 -15 0 -16 12 0 18 -1 18 -8 0 -7 -19 -8 -19 -13 2 -4 15 -2 22 8 22
8 0 14 5 14 10 0 6 -5 9 -12 8 -7 -2 -11 12 -12 37 -1 25 -7 43 -16 47 -12 5
-12 7 3 7 24 1 24 66 -1 80 -16 10 -15 10 3 11 16 1 14 4 -10 15 l-30 13 30 2
c17 1 22 4 13 7 -10 2 -15 10 -11 19 3 8 -1 14 -11 14 -22 0 -21 40 2 41 16 1
16 2 -1 6 -9 2 -17 8 -17 13 0 5 7 7 15 4 8 -4 15 -1 15 5 0 6 -7 11 -15 11
-8 0 -15 5 -15 10 0 6 3 9 8 8 4 -2 7 2 7 7 0 6 -3 9 -7 7 -5 -1 -8 2 -8 8 0
5 7 10 15 10 12 0 15 13 15 55 0 45 3 55 18 56 16 1 16 2 0 6 -10 2 -18 9 -18
14 0 5 8 10 18 10 16 1 16 2 0 6 -10 2 -18 8 -18 13 0 5 7 7 15 4 12 -5 15 4
15 44 0 27 3 65 7 83 l7 34 7 -30 c4 -19 7 1 8 57 1 91 17 129 24 56 l4 -43 1
49 c2 38 5 47 17 42 12 -4 15 4 15 43 0 34 5 51 15 55 8 3 15 16 15 28 1 22 1
22 15 4 14 -19 15 -18 16 17 1 20 3 42 4 47 1 6 4 18 5 28 1 10 5 5 10 -13 8
-30 8 -30 9 8 1 38 16 50 24 20 3 -10 5 5 6 32 2 49 2 49 16 25 14 -25 14 -24
16 20 l2 45 7 -35 c7 -33 7 -33 9 -6 1 20 5 27 16 22 18 -7 45 30 46 64 l1 25
8 -25 c7 -23 8 -22 10 10 1 19 4 29 7 22 8 -19 23 -3 24 26 l1 27 8 -25 8 -25
1 24 c1 20 3 21 16 11 13 -11 15 -8 16 21 0 28 2 30 9 14 7 -18 8 -18 15 8 6
21 10 25 16 15 6 -9 9 -7 9 10 0 17 6 22 24 22 18 0 26 7 31 27 4 19 9 23 14
14 6 -10 10 -8 16 6 7 17 8 17 15 -2 8 -19 9 -18 9 4 1 16 5 21 16 17 11 -4
15 1 15 17 1 20 2 20 11 4 10 -17 12 -16 29 5 9 13 20 32 23 43 4 18 5 18 6
-2 2 -33 21 -28 22 5 l1 27 13 -30 14 -30 1 34 c0 29 2 32 15 21 10 -8 15 -9
15 -2 0 6 7 9 15 6 9 -4 15 0 15 10 0 9 7 16 15 16 8 0 16 10 16 23 l2 22 4
-22 c5 -27 23 -31 23 -5 0 14 2 15 10 2 7 -12 11 -10 19 10 l10 25 2 -30 c1
-25 2 -26 6 -7 3 15 10 22 19 18 9 -3 14 1 14 12 0 15 2 15 11 2 9 -12 12 -13
16 -1 5 11 7 11 14 0 6 -10 9 -7 9 11 0 20 2 22 10 10 9 -13 11 -13 20 0 8 13
10 13 10 1 0 -11 4 -9 15 5 14 19 14 19 15 -1 1 -18 2 -18 10 3 10 23 40 31
41 10 0 -7 4 -4 9 7 7 17 9 17 9 3 1 -26 21 -22 22 5 1 16 2 18 6 5 5 -21 23
-24 23 -5 0 8 4 7 10 -3 8 -13 10 -12 10 3 0 25 20 21 21 -5 1 -15 4 -11 9 12
l6 35 11 -35 11 -35 1 35 2 35 14 -25 c9 -16 15 -19 15 -10 1 10 4 9 10 -5 7
-17 9 -16 16 15 7 29 9 31 12 12 3 -17 8 -22 19 -17z m-1537 -181 c0 -14 -4
-23 -10 -19 -5 3 -10 15 -10 26 0 10 5 19 10 19 6 0 10 -12 10 -26z m496 -332
c-11 -10 -14 3 -7 38 l6 35 3 -33 c2 -19 1 -36 -2 -40z m2869 -2 c3 -5 1 -10
-4 -10 -6 0 -11 5 -11 10 0 6 2 10 4 10 3 0 8 -4 11 -10z m368 -7 c-7 -2 -19
-2 -25 0 -7 3 -2 5 12 5 14 0 19 -2 13 -5z m-1038 -13 c3 -5 1 -10 -4 -10 -6
0 -11 5 -11 10 0 6 2 10 4 10 3 0 8 -4 11 -10z m1155 -10 c0 -5 -4 -10 -10
-10 -5 0 -10 5 -10 10 0 6 5 10 10 10 6 0 10 -4 10 -10z m-727 -57 c-7 -2 -21
-2 -30 0 -10 3 -4 5 12 5 17 0 24 -2 18 -5z m977 -3 c0 -5 -5 -10 -11 -10 -5
0 -7 5 -4 10 3 6 8 10 11 10 2 0 4 -4 4 -10z m30 -30 c0 -5 -5 -10 -11 -10 -5
0 -7 5 -4 10 3 6 8 10 11 10 2 0 4 -4 4 -10z m-1220 -14 c0 -3 -4 -8 -10 -11
-5 -3 -10 -1 -10 4 0 6 5 11 10 11 6 0 10 -2 10 -4z m-2913 -48 c-3 -8 -6 -5
-6 6 -1 11 2 17 5 13 3 -3 4 -12 1 -19z m4476 -135 c-7 -2 -19 -2 -25 0 -7 3
-2 5 12 5 14 0 19 -2 13 -5z m-4471 -113 c3 -16 1 -30 -4 -30 -4 0 -8 14 -8
30 0 17 2 30 4 30 2 0 6 -13 8 -30z m-4 -52 c11 -75 12 -168 2 -168 -6 0 -9 4
-5 9 3 5 1 12 -4 15 -6 4 -8 135 -2 154 3 6 8 1 9 -10z m189 -80 c-3 -8 -6 -5
-6 6 -1 11 2 17 5 13 3 -3 4 -12 1 -19z m3 -28 c0 -5 -5 -10 -11 -10 -5 0 -7
5 -4 10 3 6 8 10 11 10 2 0 4 -4 4 -10z m0 -30 c0 -5 -5 -10 -11 -10 -5 0 -7
5 -4 10 3 6 8 10 11 10 2 0 4 -4 4 -10z m-170 -65 c0 -16 -6 -25 -15 -25 -13
0 -15 17 -6 48 1 1 6 2 11 2 6 0 10 -11 10 -25z m4740 5 c0 -5 -4 -10 -10 -10
-5 0 -10 5 -10 10 0 6 5 10 10 10 6 0 10 -4 10 -10z m-4755 -68 c-6 -28 -6
-28 -14 -7 -9 22 -4 38 9 30 4 -3 7 -13 5 -23z m4835 -112 c0 -5 -2 -10 -4
-10 -3 0 -8 5 -11 10 -3 6 -1 10 4 10 6 0 11 -4 11 -10z m444 -116 c8 -41 21
-44 31 -7 9 36 23 53 40 47 17 -7 -36 -149 -56 -149 -16 0 -63 120 -55 140 9
24 34 6 40 -31z m126 -34 c0 -64 -3 -80 -15 -80 -11 0 -15 12 -15 44 0 25 -4
47 -9 50 -11 7 16 66 30 66 5 0 9 -36 9 -80z m258 -4 c3 -71 2 -77 -15 -74
-13 2 -19 14 -21 43 -2 22 -7 44 -11 48 -13 13 -22 -65 -10 -80 15 -17 4 -42
-23 -52 -35 -13 -62 2 -65 35 -5 69 -14 95 -31 92 -12 -2 -18 -15 -20 -46 -3
-34 -7 -42 -23 -42 -18 0 -20 6 -17 58 l3 57 35 2 c19 1 38 -4 42 -10 5 -8 11
-7 22 2 9 7 33 11 58 9 33 -2 43 1 44 12 2 28 4 32 17 28 8 -3 13 -32 15 -82z
m181 -1 c1 -61 -1 -75 -14 -75 -11 0 -15 11 -15 44 0 26 -5 46 -12 50 -10 3
-8 9 5 19 13 11 15 17 7 22 -9 6 -9 10 1 16 22 13 26 2 28 -76z m299 61 c3
-12 -5 -16 -32 -16 -20 0 -36 -4 -36 -10 0 -5 11 -10 25 -10 31 0 34 -27 3
-32 -13 -2 -24 -11 -26 -20 -3 -15 4 -18 32 -18 25 0 36 -4 36 -15 0 -11 -12
-15 -49 -15 l-49 0 -4 75 c-3 68 -1 75 17 78 43 7 80 -1 83 -17z m-370 -30
c18 -11 16 -106 -2 -106 -10 0 -16 14 -18 43 -2 29 -8 42 -18 42 -10 0 -16
-13 -18 -42 -2 -29 -8 -43 -18 -43 -11 0 -14 14 -14 59 l0 59 38 -2 c20 -1 43
-5 50 -10z m164 2 c9 -7 18 -34 21 -60 l5 -48 -44 0 c-29 0 -46 5 -52 16 -14
25 -3 52 27 63 24 9 24 9 4 10 -23 1 -29 11 -16 24 10 11 38 8 55 -5z m253
-16 c11 -25 25 -29 25 -8 0 18 26 39 39 32 12 -8 -34 -111 -50 -111 -13 0 -60
100 -51 109 10 11 27 1 37 -22z m159 6 c9 -12 16 -40 16 -61 l0 -38 -47 3
c-46 3 -48 4 -48 33 0 21 7 33 25 42 24 12 25 13 3 13 -13 0 -23 4 -23 8 0 30
54 29 74 0z m123 11 c18 -16 18 -109 -1 -109 -8 0 -15 16 -19 41 -3 22 -8 43
-10 46 -13 13 -27 -12 -27 -48 0 -27 -4 -39 -14 -39 -10 0 -15 15 -18 50 -1
28 -2 54 0 58 4 13 74 13 89 1z m101 -6 c2 -8 -5 -13 -19 -13 -21 0 -21 -1 5
-25 23 -21 25 -28 16 -45 -9 -16 -19 -20 -43 -18 -36 3 -40 20 -6 28 22 5 22
6 -4 23 -29 19 -34 36 -15 55 16 16 60 12 66 -5z m-6398 -57 c0 -3 -4 -8 -10
-11 -5 -3 -10 -1 -10 4 0 6 5 11 10 11 6 0 10 -2 10 -4z m4710 -36 c0 -5 -4
-10 -10 -10 -5 0 -10 5 -10 10 0 6 5 10 10 10 6 0 10 -4 10 -10z m470 -168 c0
-40 -5 -73 -12 -80 -17 -17 -63 -15 -78 3 -18 21 -3 38 22 24 28 -15 38 2 38
69 0 39 4 52 15 52 12 0 15 -14 15 -68z m655 43 c14 -13 25 -34 25 -47 0 -23
0 -23 13 2 17 33 69 40 89 11 14 -20 14 -20 31 -1 35 41 97 18 97 -35 0 -60
-60 -88 -97 -45 -17 19 -17 19 -30 0 -23 -33 -70 -26 -93 13 -13 20 -20 26
-20 15 0 -24 -39 -48 -77 -48 l-33 0 0 73 c0 41 3 77 7 80 15 16 65 6 88 -18z
m305 -32 c0 -32 3 -68 6 -80 5 -19 2 -23 -15 -23 -20 0 -21 5 -21 80 0 64 3
80 15 80 12 0 15 -13 15 -57z m-852 5 c7 -7 12 -22 12 -35 0 -20 -5 -23 -36
-23 -22 0 -33 -4 -29 -10 4 -6 16 -10 28 -8 14 2 22 -2 22 -12 0 -17 -52 -25
-72 -12 -7 4 -15 22 -19 39 -5 24 -1 36 15 52 23 23 60 28 79 9z m120 0 c7 -7
12 -34 12 -61 0 -41 -3 -48 -17 -45 -13 2 -19 14 -20 42 -3 43 -7 51 -22 41
-6 -3 -11 -24 -11 -46 0 -27 -4 -39 -14 -39 -10 0 -15 16 -18 56 -1 31 -1 58
1 60 10 9 78 3 89 -8z m120 0 c10 -12 15 -52 13 -90 -1 -10 -7 -18 -15 -18
-10 0 -16 14 -18 43 -2 29 -8 42 -18 42 -10 0 -16 -13 -18 -42 -2 -29 -8 -43
-18 -43 -11 0 -14 14 -14 60 l0 60 39 0 c21 0 43 -6 49 -12z m67 -20 l14 -33
11 33 c7 17 18 32 26 32 19 0 18 -13 -8 -82 -20 -57 -48 -86 -68 -73 -15 9
-12 25 5 25 20 0 19 19 -4 71 -11 24 -17 47 -15 51 10 16 25 7 39 -24z m663
20 c7 -7 12 -22 12 -35 0 -20 -5 -23 -37 -23 -20 0 -33 -3 -29 -7 4 -5 18 -8
29 -8 30 0 28 -29 -2 -33 -13 -2 -35 2 -47 9 -29 15 -33 63 -7 91 18 20 63 24
81 6z m62 -20 l13 -33 10 33 c7 22 16 32 30 32 11 0 17 -5 14 -12 -2 -7 -14
-41 -27 -75 -22 -61 -45 -83 -71 -67 -9 5 -6 11 7 21 18 13 18 15 1 62 -21 59
-21 71 -3 71 8 0 20 -15 26 -32z m-1593 -115 c-2 -16 -4 -3 -4 27 0 30 2 43 4
28 2 -16 2 -40 0 -55z m-4917 -165 c0 -16 -3 -19 -11 -11 -6 6 -8 16 -5 22 11
17 16 13 16 -11z m4810 -348 c0 -5 -4 -10 -10 -10 -5 0 -10 5 -10 10 0 6 5 10
10 10 6 0 10 -4 10 -10z m-4801 -232 c-1 -22 -3 -26 -6 -13 -3 11 -10 26 -15
33 -8 9 -6 12 6 12 12 0 16 -9 15 -32z m4651 -48 c0 -5 -4 -10 -10 -10 -5 0
-10 5 -10 10 0 6 5 10 10 10 6 0 10 -4 10 -10z m-3455 -90 c3 -5 1 -10 -4 -10
-6 0 -11 5 -11 10 0 6 2 10 4 10 3 0 8 -4 11 -10z m-1193 -122 c3 -25 2 -52
-3 -60 -10 -15 -11 -11 -13 64 -1 66 9 64 16 -4z m4478 -8 c0 -5 -2 -10 -4
-10 -3 0 -8 5 -11 10 -3 6 -1 10 4 10 6 0 11 -4 11 -10z m-500 -300 c0 -5 -4
-10 -10 -10 -5 0 -10 5 -10 10 0 6 5 10 10 10 6 0 10 -4 10 -10z m30 0 c0 -5
-4 -10 -10 -10 -5 0 -10 5 -10 10 0 6 5 10 10 10 6 0 10 -4 10 -10z m740 -45
c42 -14 44 -29 33 -173 l-8 -94 -56 -23 -55 -22 -62 20 c-60 20 -61 22 -66 61
-3 23 -7 81 -8 130 l-3 89 60 18 c61 18 100 16 165 -6z m-2405 -15 c9 -7 16
-6 25 5 13 15 94 19 84 4 -2 -4 3 -9 11 -13 11 -4 15 -23 15 -79 0 -70 -10
-97 -34 -97 -6 0 -5 4 3 9 11 7 5 11 -22 16 -24 5 -42 3 -52 -5 -12 -10 -18
-10 -30 0 -18 15 -85 5 -85 -13 0 -7 -4 -6 -10 3 -5 8 -10 47 -10 87 0 63 2
72 20 78 11 4 18 10 15 15 -7 12 54 3 70 -10z m855 10 c0 -5 -4 -10 -10 -10
-5 0 -10 5 -10 10 0 6 5 10 10 10 6 0 10 -4 10 -10z m50 -2 c0 -4 -9 -8 -20
-8 -11 0 -20 4 -20 9 0 6 9 9 20 8 11 -1 20 -5 20 -9z m-3248 -33 c2 -19 0
-35 -4 -35 -4 0 -8 16 -8 35 0 19 2 35 4 35 2 0 6 -16 8 -35z m2572 -41 c68
-29 186 -133 186 -163 0 -17 -5 -19 -163 -62 l-67 -18 -52 27 c-73 38 -161 37
-236 -1 -48 -25 -56 -27 -95 -16 -74 19 -187 61 -187 70 0 7 40 58 70 89 22
22 112 80 124 80 5 0 20 9 32 21 14 13 22 16 21 7 0 -7 1 -26 3 -43 3 -28 3
-27 10 10 6 36 7 33 9 -27 1 -78 7 -98 30 -99 12 0 11 -2 -4 -8 -12 -5 30 -9
102 -9 78 0 127 4 137 11 19 15 26 169 8 175 -7 2 -12 9 -12 15 0 7 12 -1 26
-17 15 -15 41 -34 58 -42z m1116 46 c0 -5 -4 -10 -10 -10 -5 0 -10 5 -10 10 0
6 5 10 10 10 6 0 10 -4 10 -10z m-1190 -95 c0 -64 -3 -75 -17 -75 -13 0 -14 3
-5 12 7 7 12 39 12 75 0 35 2 63 5 63 3 0 5 -34 5 -75z m-2505 -4 c3 -5 1 -12
-5 -16 -5 -3 -10 1 -10 9 0 18 6 21 15 7z m2335 -51 c8 -5 11 -10 5 -10 -5 0
-17 5 -25 10 -8 5 -10 10 -5 10 6 0 17 -5 25 -10z m80 5 c0 -2 -10 -10 -22
-16 -21 -11 -22 -11 -9 4 13 16 31 23 31 12z m2058 -84 l3 -21 -323 2 c-279 3
-323 5 -323 18 0 12 26 16 150 20 83 3 227 5 320 4 166 -1 170 -1 173 -23z
m1017 4 c0 -20 -8 -20 -322 -23 -308 -2 -323 -1 -323 16 0 10 3 22 7 25 4 4
149 6 322 5 308 -3 316 -3 316 -23z m-1247 -132 c14 -20 16 -67 2 -93 -13 -25
-66 -36 -96 -19 -28 15 -41 67 -24 99 22 41 90 48 118 13z m146 17 c14 -5 26
-16 26 -25 0 -19 -14 -19 -30 0 -27 32 -60 5 -60 -50 0 -33 41 -55 65 -35 20
17 32 5 15 -15 -15 -18 -53 -20 -83 -4 -29 16 -37 28 -37 64 0 35 7 47 35 63
25 14 37 15 69 2z m486 0 c25 -1 39 -4 33 -7 -15 -6 -18 -94 -3 -109 11 -11 2
-54 -11 -54 -5 0 -9 9 -9 20 0 19 -5 20 -90 16 -83 -4 -116 3 -90 19 14 9 12
92 -2 102 -13 8 65 20 107 16 11 -1 40 -2 65 -3z m160 -15 c0 -8 -4 -17 -10
-20 -5 -3 -10 -18 -10 -32 0 -20 -3 -23 -14 -14 -11 9 -15 7 -19 -9 -6 -23 21
-28 41 -8 9 9 12 7 12 -10 0 -20 -5 -22 -57 -21 -32 0 -52 3 -45 6 7 3 12 25
12 59 0 36 -4 54 -12 54 -10 0 -10 2 -1 8 19 12 103 2 103 -13z m173 8 c-8 -3
-13 -24 -13 -58 0 -33 5 -55 13 -58 6 -3 -8 -5 -33 -5 -25 0 -39 2 -32 5 6 2
12 16 12 29 0 18 -5 24 -21 24 -17 0 -20 -5 -17 -32 2 -26 -1 -32 -19 -33 -12
-1 -28 2 -35 7 -10 6 -10 8 0 8 8 0 12 17 12 49 0 29 -5 53 -12 58 -8 5 9 10
42 13 56 5 125 0 103 -7z m160 8 c5 0 5 -6 1 -12 -5 -9 -9 -77 -5 -104 1 -3 1
-8 1 -12 0 -9 -131 -10 -136 -1 -2 4 0 9 6 13 13 8 13 105 -1 105 -5 0 -8 3
-6 8 4 6 105 8 140 3z m124 -7 c3 -8 1 -20 -6 -27 -14 -14 -15 -57 -1 -57 6 0
10 -9 10 -20 0 -18 -6 -20 -57 -19 -32 0 -52 3 -45 6 7 3 12 25 12 59 0 36 -4
54 -12 55 -23 1 21 14 57 17 25 1 37 -3 42 -14z m-1527 -9 c-8 -10 -11 -35 -8
-70 4 -52 3 -55 -18 -55 -25 0 -40 15 -24 25 5 3 10 26 10 51 0 40 -2 44 -25
44 -23 0 -25 -3 -25 -50 0 -29 5 -50 11 -50 5 0 7 -4 4 -10 -8 -13 -52 -13
-60 -1 -3 5 -1 12 5 16 16 10 12 82 -6 99 -14 15 -8 16 67 16 71 0 80 -2 69
-15z m128 2 c17 -20 3 -56 -24 -63 -25 -6 -35 -44 -12 -44 9 0 9 -3 1 -11 -6
-6 -21 -9 -33 -7 -20 3 -22 9 -24 71 l-1 67 41 0 c23 0 46 -6 52 -13z m448
-22 c0 -16 4 -38 9 -48 11 -26 -13 -47 -63 -52 -38 -4 -63 7 -44 19 10 6 9 87
-2 104 -6 10 4 12 46 10 51 -3 53 -4 54 -33z m134 13 c0 -17 -3 -19 -12 -10
-17 17 -38 15 -38 -3 0 -18 16 -20 23 -2 3 6 5 -4 5 -23 0 -19 -2 -29 -5 -22
-8 21 -23 13 -23 -13 0 -19 4 -23 18 -18 9 4 20 11 24 17 4 6 8 -1 8 -15 0
-25 -3 -27 -46 -25 l-46 1 -2 68 -1 67 48 0 c42 0 47 -2 47 -22z m-4683 -65
c-3 -10 -5 -2 -5 17 0 19 2 27 5 18 2 -10 2 -26 0 -35z m2388 10 c5 -12 19
-23 30 -25 16 -2 21 -13 26 -58 6 -61 11 -58 13 10 1 33 5 46 18 48 13 3 17
-8 20 -60 2 -35 3 -64 3 -65 0 -1 -16 -5 -34 -8 -46 -8 -61 8 -61 67 l0 49
-26 -20 c-15 -11 -30 -18 -35 -15 -5 3 -9 -8 -9 -25 0 -16 5 -33 11 -37 15 -9
-9 -22 -36 -20 -23 2 -27 9 -18 31 3 9 3 49 1 88 l-5 73 46 -6 c35 -4 48 -10
56 -27z m332 3 c-4 -9 -11 -16 -17 -16 -17 0 -24 31 -9 41 18 11 34 -5 26 -25z
m249 -5 c-11 -18 -36 -13 -36 7 0 10 3 22 7 26 10 10 37 -20 29 -33z m-1296 2
c-1 -25 -2 -26 -14 -10 -22 29 -46 21 -46 -15 1 -31 1 -32 15 -14 14 18 15 17
15 -24 0 -41 -1 -42 -15 -24 -14 18 -14 17 -15 -13 0 -26 4 -33 20 -33 10 0
23 8 29 17 14 26 26 7 13 -21 -9 -20 -18 -23 -59 -23 l-48 0 0 93 0 94 53 0
c50 0 52 -1 52 -27z m880 2 c0 -14 5 -25 12 -25 23 0 48 -34 48 -64 0 -48 -25
-78 -63 -73 l-32 3 -5 92 c-5 90 -5 92 18 92 17 0 22 -6 22 -25z m110 -60 c0
-55 4 -85 11 -85 7 0 10 20 7 57 -2 49 0 58 15 61 13 3 17 -4 18 -25 1 -15 2
-46 3 -67 1 -38 0 -39 -31 -39 -74 2 -68 -5 -68 93 0 87 1 90 23 90 21 0 22
-4 22 -85z m200 62 c0 -14 9 -26 23 -32 18 -8 23 -19 25 -62 4 -73 22 -67 22
8 0 52 2 60 18 57 16 -3 18 -10 21 -96 1 -14 5 -20 12 -17 6 4 9 30 8 58 l-3
51 34 2 c49 3 60 -11 60 -69 0 -46 1 -49 14 -32 10 14 11 25 5 38 -22 39 13
73 66 63 34 -5 14 -86 -21 -86 -8 0 -14 -4 -14 -10 0 -5 11 -10 24 -10 32 0
41 -35 15 -61 -33 -33 -87 -19 -76 20 5 21 3 21 -136 21 l-142 0 0 90 c0 87 1
90 23 90 16 0 22 -6 22 -23z m-996 -43 c34 -34 12 -124 -31 -124 -11 0 -14 -6
-9 -25 6 -22 3 -25 -18 -25 -24 0 -25 3 -24 63 0 34 0 73 -1 87 l-2 25 -20
-24 c-18 -22 -18 -26 -4 -47 26 -40 20 -51 -27 -48 -24 1 -44 2 -46 3 -1 0 4
13 12 29 12 23 12 31 0 52 -7 14 -13 28 -14 32 0 4 35 9 78 11 42 1 80 4 84 5
4 1 14 -5 22 -14z m103 -5 c5 -17 6 -17 23 4 15 18 22 20 37 11 10 -6 19 -23
21 -38 3 -21 -1 -26 -18 -26 -15 0 -20 -5 -18 -17 2 -11 11 -17 22 -15 22 4
17 -17 -8 -32 -14 -9 -21 -6 -37 13 -10 13 -19 33 -19 46 0 24 -25 41 -35 24
-4 -5 -5 -26 -3 -47 3 -32 0 -37 -20 -38 -21 -1 -22 3 -22 62 0 64 2 68 46 71
18 1 28 -5 31 -18z m161 -12 c-1 -18 1 -38 5 -44 4 -6 3 -23 -3 -38 -8 -21
-15 -25 -37 -22 -20 2 -29 10 -31 25 -4 27 6 28 24 5 10 -14 13 -15 14 -4 0 8
-10 25 -22 38 -18 19 -20 27 -10 48 8 17 20 25 37 25 23 0 25 -4 23 -33z m82
12 c0 -18 -2 -19 -15 -9 -22 18 -18 4 7 -30 18 -25 20 -33 10 -55 -8 -17 -20
-25 -37 -25 -21 0 -25 5 -25 28 1 25 2 26 14 9 10 -13 16 -15 21 -7 4 7 -2 18
-14 26 -13 9 -21 26 -21 43 0 34 6 41 37 41 17 0 23 -6 23 -21z m590 1 c0 -22
-16 -27 -23 -7 -2 7 -8 8 -13 3 -5 -5 1 -15 14 -23 15 -11 22 -25 22 -48 0
-36 -11 -44 -47 -37 -17 3 -23 11 -23 31 1 24 2 24 14 9 13 -17 36 -25 36 -12
0 3 -11 15 -25 26 -41 32 -27 78 22 78 16 0 23 -6 23 -20z m-2800 0 c0 -5 -5
-10 -11 -10 -5 0 -7 5 -4 10 3 6 8 10 11 10 2 0 4 -4 4 -10z m-1 -62 c-1 -31
-1 -31 -8 -8 -5 14 -6 28 -4 33 9 15 13 6 12 -25z m5201 -35 c0 -6 -4 -14 -10
-18 -5 -3 -7 -12 -4 -19 3 -8 1 -17 -5 -21 -6 -3 -11 2 -11 12 0 10 -3 27 -6
38 -4 16 0 21 15 21 12 0 21 -6 21 -13z m145 -30 c0 -21 -5 -29 -22 -31 -20
-3 -23 1 -23 32 0 25 5 36 18 38 22 5 28 -4 27 -39z m155 2 c0 -26 -27 -53
-39 -39 -19 20 -21 52 -5 68 20 21 44 5 44 -29z m-1634 26 c12 9 14 5 14 -23
0 -29 -4 -34 -25 -36 -21 -1 -25 2 -25 26 0 30 12 51 18 32 3 -8 8 -8 18 1z
m164 -24 c0 -19 -3 -36 -6 -39 -8 -9 -44 3 -44 14 0 6 6 8 14 5 10 -4 14 0 13
14 -1 10 -7 19 -15 19 -7 0 -10 5 -7 10 3 6 15 10 26 10 15 0 19 -7 19 -33z
m150 -8 c0 -31 -3 -40 -14 -36 -7 3 -19 0 -26 -6 -10 -10 -11 -5 -6 22 3 18 6
40 6 47 0 8 9 14 20 14 17 0 20 -7 20 -41z m133 34 c2 -5 7 -20 10 -34 6 -23
4 -26 -22 -26 -27 0 -28 1 -18 34 10 32 21 41 30 26z m149 -5 c-7 -7 -12 -22
-12 -35 0 -13 -4 -23 -10 -23 -5 0 -10 16 -10 35 0 29 4 35 22 35 17 0 19 -3
10 -12z m138 -3 c-10 -12 -10 -15 1 -15 11 0 11 -2 -1 -10 -13 -9 -13 -11 0
-20 12 -8 11 -10 -7 -10 -20 0 -23 5 -23 35 0 29 4 35 21 35 18 0 19 -2 9 -15z
m158 -23 c2 -18 -1 -32 -7 -32 -6 0 -12 12 -12 28 l-2 27 -4 -27 c-6 -39 -22
-35 -18 5 2 17 4 33 4 35 1 2 9 2 19 0 11 -2 18 -14 20 -36z m134 16 c16 -16
19 -25 11 -37 -18 -29 -38 -18 -41 22 -4 43 0 45 30 15z m163 12 c3 -5 -3 -10
-14 -10 -22 0 -29 -24 -11 -35 6 -3 10 -1 10 5 0 6 5 8 11 4 7 -4 6 -12 -6
-23 -15 -15 -17 -15 -29 2 -18 24 -9 67 15 67 10 0 21 -4 24 -10z m-5058 -37
c-3 -10 -5 -4 -5 12 0 17 2 24 5 18 2 -7 2 -21 0 -30z m0 -95 c-3 -7 -5 -2 -5
12 0 14 2 19 5 13 2 -7 2 -19 0 -25z m3 -54 c0 -8 -4 -12 -10 -9 -5 3 -10 10
-10 16 0 5 5 9 10 9 6 0 10 -7 10 -16z"/>
<path d="M1075 5541 c-183 -52 -283 -152 -293 -292 -15 -214 101 -309 425
-348 203 -25 257 -44 287 -105 25 -51 15 -100 -32 -147 -47 -46 -122 -69 -234
-70 -112 -1 -208 35 -288 107 -22 20 -44 34 -49 32 -16 -5 -141 -127 -141
-137 0 -5 17 -22 37 -37 153 -117 267 -159 433 -158 114 0 181 15 275 59 114
55 182 134 210 244 14 53 15 74 5 129 -13 78 -27 107 -72 148 -66 63 -162 95
-352 119 -210 26 -265 47 -292 110 -25 62 1 120 75 163 43 25 54 27 161 27
104 0 120 -3 170 -27 31 -15 74 -43 96 -62 l40 -35 74 68 73 67 -44 37 c-55
48 -146 92 -230 112 -87 20 -257 19 -334 -4z"/>
<path d="M2975 5201 l-50 -18 -1 -84 -2 -84 -28 0 c-16 0 -35 -4 -41 -8 -14
-9 -18 -106 -5 -108 4 -1 22 -3 41 -3 l34 -2 -2 -100 c-1 -83 3 -110 24 -169
13 -38 25 -85 25 -103 0 -53 23 -85 88 -119 l60 -32 31 47 31 47 -23 17 c-12
10 -27 18 -34 18 -17 0 -63 59 -63 81 0 11 -3 18 -7 16 -5 -3 -8 68 -8 158 0
90 3 159 6 153 3 -5 21 -10 40 -10 72 -1 69 -3 69 62 0 33 -4 60 -10 60 -5 0
-10 -6 -10 -12 0 -10 -2 -10 -9 0 -4 8 -21 13 -37 12 -16 -1 -33 -2 -39 -1 -6
1 -9 39 -7 101 4 112 7 109 -73 81z m-10 -21 c-4 -7 3 -8 22 -4 15 4 24 3 20
-2 -4 -4 -21 -9 -38 -10 -25 -2 -28 0 -18 12 13 16 23 19 14 4z m0 -59 c3 -5
1 -12 -5 -16 -5 -3 -10 1 -10 9 0 18 6 21 15 7z m-8 -113 c-3 -8 -6 -5 -6 6
-1 11 2 17 5 13 3 -3 4 -12 1 -19z m180 -65 c-3 -10 -5 -4 -5 12 0 17 2 24 5
18 2 -7 2 -21 0 -30z m-187 -27 c0 -3 -4 -8 -10 -11 -5 -3 -10 -1 -10 4 0 6 5
11 10 11 6 0 10 -2 10 -4z m37 -358 c-3 -7 -5 -2 -5 12 0 14 2 19 5 13 2 -7 2
-19 0 -25z m68 -8 c3 -5 1 -10 -4 -10 -6 0 -11 5 -11 10 0 6 2 10 4 10 3 0 8
-4 11 -10z m-58 -67 c-3 -10 -5 -4 -5 12 0 17 2 24 5 18 2 -7 2 -21 0 -30z
m83 28 c0 -5 -9 -11 -20 -14 -11 -3 -20 -1 -20 3 0 5 8 11 18 13 9 3 18 5 20
6 1 0 2 -3 2 -8z m-10 -41 c0 -5 -4 -10 -10 -10 -5 0 -10 5 -10 10 0 6 5 10
10 10 6 0 10 -4 10 -10z"/>
<path d="M1960 4959 c-62 -26 -100 -85 -100 -156 0 -148 177 -208 273 -93 39
46 45 109 16 167 -13 26 -36 56 -50 66 -32 23 -104 31 -139 16z"/>
<path d="M2558 4803 c7 -3 16 -2 19 1 4 3 -2 6 -13 5 -11 0 -14 -3 -6 -6z"/>
<path d="M2500 4622 c-47 -23 -80 -83 -80 -148 0 -93 65 -154 165 -154 91 0
155 66 155 162 0 118 -130 194 -240 140z"/>
<path d="M2792 4605 c0 -16 2 -22 5 -12 2 9 2 23 0 30 -3 6 -5 -1 -5 -18z"/>
<path d="M2356 4523 c-6 -14 -5 -15 5 -6 7 7 10 15 7 18 -3 3 -9 -2 -12 -12z"/>
<path d="M2911 4474 c0 -11 3 -14 6 -6 3 7 2 16 -1 19 -3 4 -6 -2 -5 -13z"/>
<path d="M2793 4455 c-3 -9 -3 -18 -1 -21 3 -3 8 4 11 16 6 23 -1 27 -10 5z"/>
<path d="M2342 4410 c0 -14 2 -19 5 -12 2 6 2 18 0 25 -3 6 -5 1 -5 -13z"/>
<path d="M2805 4269 c-11 -16 -1 -19 13 -3 7 8 8 14 3 14 -5 0 -13 -5 -16 -11z"/>
<path d="M2765 4220 c-3 -5 -1 -10 4 -10 6 0 11 5 11 10 0 6 -2 10 -4 10 -3 0
-8 -4 -11 -10z"/>
<path d="M2618 4163 c7 -3 16 -2 19 1 4 3 -2 6 -13 5 -11 0 -14 -3 -6 -6z"/>
<path d="M4121 4919 c-93 -18 -182 -82 -222 -160 -10 -20 -23 -67 -29 -104
-24 -152 44 -296 169 -357 36 -17 64 -22 126 -22 84 0 115 10 183 61 l32 24 0
-40 c0 -22 -5 -52 -11 -68 -44 -118 -226 -152 -326 -61 l-22 20 -48 -38 c-26
-21 -50 -40 -52 -41 -2 -1 16 -20 40 -42 97 -87 248 -104 374 -42 111 55 175
158 175 281 l0 60 -38 0 c-21 0 -43 5 -50 12 -9 9 -12 80 -12 260 0 214 -2
248 -15 248 -11 0 -15 -11 -15 -36 l0 -36 -32 28 c-60 50 -144 70 -227 53z
m137 -134 c76 -32 121 -102 122 -189 0 -145 -145 -239 -275 -176 -117 56 -137
235 -37 329 54 50 123 63 190 36z"/>
<path d="M4122 4730 c-70 -43 -95 -147 -52 -217 53 -88 185 -87 239 1 34 54
29 138 -11 186 -43 53 -118 65 -176 30z"/>
<path d="M4265 4243 c-26 -10 -67 -13 -118 -11 l-78 3 25 -22 c54 -46 148 -38
201 17 32 33 29 34 -30 13z"/>
<path d="M1385 4005 c-256 -43 -479 -161 -695 -366 -105 -100 -224 -290 -287
-458 -134 -357 -74 -812 151 -1146 146 -215 393 -404 633 -485 171 -56 280
-73 453 -67 216 8 364 44 544 134 121 61 200 120 320 238 115 113 175 193 235
312 54 108 53 121 -2 18 -50 -94 -67 -121 -124 -196 -103 -137 -288 -288 -450
-369 -154 -76 -386 -130 -554 -130 -467 1 -916 276 -1123 689 -80 159 -116
280 -137 464 -37 317 82 684 303 933 61 69 211 200 279 242 117 75 265 133
429 168 117 26 370 26 490 0 238 -51 405 -132 578 -283 225 -195 355 -414 416
-698 8 -38 15 -59 15 -47 1 13 -8 60 -20 105 -123 492 -506 846 -1018 941
-102 19 -323 20 -436 1z"/>
<path d="M2260 3969 c0 -5 5 -7 10 -4 6 3 10 8 10 11 0 2 -4 4 -10 4 -5 0 -10
-5 -10 -11z"/>
<path d="M1615 3830 c-27 -4 -63 -13 -78 -19 -16 -6 -41 -11 -58 -11 -118 0
-379 -205 -453 -355 -24 -50 -27 -66 -22 -110 l6 -51 -43 -11 c-58 -16 -154
-80 -203 -136 -119 -135 -159 -359 -99 -549 9 -31 55 -128 101 -215 120 -225
185 -366 191 -413 3 -22 9 -43 14 -46 10 -6 3 54 -12 111 -6 22 -26 71 -45
109 -19 38 -32 71 -30 73 2 3 21 -32 43 -76 21 -45 44 -80 53 -81 13 0 13 -1
0 -10 -11 -7 -5 -8 20 -3 19 3 38 10 41 15 3 5 12 2 19 -7 11 -14 14 -13 27 2
12 16 13 12 8 -32 l-5 -50 16 34 c8 18 25 70 36 115 12 44 27 87 33 94 10 11
12 9 8 -12 -3 -15 -1 -26 6 -26 5 0 8 7 5 15 -5 12 -1 13 25 4 17 -6 31 -16
31 -21 0 -7 5 -6 14 1 10 8 16 9 19 1 3 -6 4 -5 3 2 -2 7 -10 12 -20 10 -9 -2
-16 2 -16 8 0 9 14 14 33 11 5 -1 6 3 3 8 -4 5 -1 13 5 17 8 4 9 3 5 -4 -4 -7
-2 -12 4 -12 6 0 9 -4 6 -9 -7 -10 52 -26 61 -17 4 3 13 0 22 -8 38 -32 122
-86 144 -91 18 -5 30 -1 45 15 l20 22 12 -57 c6 -31 13 -55 15 -53 2 2 1 35
-3 73 -7 68 -6 72 27 129 l35 59 43 -47 c24 -27 43 -55 44 -64 0 -10 9 -35 19
-57 l19 -40 -5 38 c-5 30 -3 36 8 32 17 -7 27 34 29 115 1 25 4 36 6 26 4 -13
7 -15 13 -7 8 13 89 -60 148 -134 42 -52 41 -38 -1 28 -36 56 -103 121 -143
139 -14 7 -24 20 -24 32 -1 31 -37 105 -55 112 -8 3 -15 14 -15 23 0 32 29 59
72 66 24 4 72 18 108 31 35 13 65 22 65 21 1 -1 14 -28 29 -59 36 -76 77 -114
176 -167 101 -53 147 -93 171 -146 13 -27 19 -33 19 -19 0 27 -53 110 -81 125
l-23 12 23 9 c12 4 26 6 30 3 4 -2 8 3 8 11 0 9 -6 13 -14 10 -8 -3 -11 -1 -8
4 3 5 -2 22 -12 37 -14 22 -18 47 -17 128 0 55 5 110 10 122 6 15 9 -10 9 -80
0 -108 0 -107 71 -237 16 -29 24 -61 25 -95 1 -41 2 -45 9 -24 11 38 -2 94
-37 164 -32 63 -53 143 -53 202 0 19 21 97 47 172 44 130 46 141 46 246 0 95
-4 120 -28 185 -33 91 -80 157 -145 205 -45 33 -48 38 -43 70 4 23 -3 60 -18
107 -40 127 -129 197 -303 238 -94 23 -222 32 -291 20z m225 -25 c96 -18 176
-43 209 -63 85 -52 143 -143 145 -227 0 -27 3 -52 6 -55 3 -3 3 -18 0 -35 l-6
-30 -8 32 c-4 18 -12 35 -17 38 -5 4 -9 15 -9 25 0 11 -9 24 -19 30 -16 8 -19
17 -14 43 3 23 0 37 -11 46 -9 7 -16 20 -16 28 0 8 -5 11 -12 7 -7 -4 -8 -3
-4 5 9 14 26 5 26 -15 0 -8 4 -13 9 -10 17 11 0 41 -32 60 -74 44 -137 77
-154 80 -10 2 -44 11 -75 21 -91 26 -235 23 -290 -6 -22 -12 -37 -4 -21 12 27
27 185 35 293 14z m-445 -71 c-86 -45 -162 -97 -221 -153 -14 -13 -27 -21 -30
-18 -5 5 92 90 141 124 49 34 147 83 164 83 9 0 -15 -16 -54 -36z m204 -78
c73 -74 128 -96 277 -107 183 -13 226 -30 269 -104 22 -37 25 -54 25 -139 0
-77 5 -113 25 -172 82 -243 -59 -500 -308 -564 -162 -41 -309 -31 -432 29 -77
38 -180 131 -197 177 -12 35 -34 49 -23 15 8 -26 -40 -45 -90 -35 -54 10 -82
40 -89 96 -6 53 6 64 52 47 27 -11 27 -11 5 -20 -23 -8 -32 -39 -13 -39 6 0
10 5 10 10 0 14 43 13 58 -2 17 -17 27 -2 12 17 -7 9 -33 28 -57 42 -33 19
-47 22 -57 14 -22 -18 -30 18 -9 41 34 37 109 5 143 -62 18 -35 25 -40 54 -40
26 0 41 8 60 30 50 60 55 130 26 364 -12 102 1 172 48 260 23 44 147 185 162
186 3 0 25 -20 49 -44z m-485 -128 c-4 -7 -23 -35 -42 -62 -38 -55 -52 -119
-33 -155 7 -13 8 -21 2 -21 -14 0 -25 64 -17 103 6 29 39 87 75 130 16 20 26
23 15 5z m1178 -180 c131 -129 164 -337 88 -561 -18 -54 -35 -96 -37 -94 -6 6
16 98 29 121 15 28 23 238 10 275 -7 19 -7 31 -1 31 5 0 9 11 9 25 0 14 -4 25
-10 25 -5 0 -9 3 -8 8 3 12 -28 66 -51 86 -12 11 -21 24 -21 30 0 9 -28 32
-82 67 -10 7 0 39 13 39 4 0 32 -24 61 -52z m-1242 -93 c0 -3 -20 -10 -45 -16
-25 -6 -45 -14 -45 -18 0 -4 -20 -13 -45 -20 -29 -9 -58 -28 -85 -57 -22 -24
-40 -40 -40 -37 0 12 -29 -33 -57 -88 -59 -118 -73 -269 -39 -414 18 -76 13
-83 -9 -13 -25 79 -30 228 -11 313 33 141 124 258 252 326 48 25 124 40 124
24z m72 -12 c40 -46 54 -123 27 -147 -9 -8 -10 -6 -5 7 7 20 -16 98 -40 135
-17 26 -4 30 18 5z m-37 -483 c11 -18 79 -30 116 -20 35 10 37 9 108 -60 40
-38 77 -70 82 -70 5 0 9 -13 9 -30 0 -22 -7 -33 -28 -44 -44 -23 -62 -50 -92
-136 -23 -65 -37 -89 -74 -124 -31 -29 -46 -37 -47 -27 -1 19 -6 60 -14 120
-4 24 -20 81 -35 125 -16 45 -32 110 -35 146 -4 36 -8 80 -10 98 -3 31 7 43
20 22z m428 -282 c27 -33 51 -57 54 -54 3 3 -19 35 -48 73 -36 44 -47 64 -34
59 58 -22 138 -36 207 -36 l79 0 -15 -27 c-17 -36 -32 -105 -17 -83 9 13 11
13 11 -1 0 -9 -16 -32 -35 -52 -46 -47 -79 -48 -170 -6 -84 40 -151 100 -139
126 4 10 10 41 12 68 l4 50 22 -29 c11 -16 43 -56 69 -88z m-757 -23 c14 -28
14 -29 -1 -10 -9 11 -23 34 -31 50 -14 28 -14 29 1 10 9 -11 23 -33 31 -50z
m639 54 c-4 -5 -13 -9 -21 -9 -8 0 -14 -9 -14 -20 0 -11 5 -20 11 -20 6 0 9
-7 5 -15 -3 -8 -1 -15 4 -15 15 0 70 -51 65 -61 -4 -5 0 -6 8 -3 8 3 18 0 23
-7 5 -8 3 -10 -6 -4 -9 5 -11 4 -6 -4 4 -6 13 -11 19 -10 7 1 30 -6 52 -16 22
-10 59 -20 83 -23 23 -2 42 -8 42 -12 0 -17 -94 -172 -108 -177 -35 -14 -194
98 -252 178 -25 36 -27 43 -18 77 12 43 44 110 64 132 14 17 58 25 49 9z m417
-139 c12 -30 12 -164 0 -186 -7 -13 -14 -8 -37 23 -16 21 -42 50 -58 65 -27
25 -30 48 -6 48 6 0 7 -4 4 -10 -3 -5 -1 -10 5 -10 7 0 10 6 7 14 -6 15 16 40
25 30 3 -3 9 0 14 7 5 8 3 10 -6 4 -8 -5 -11 -3 -8 6 3 8 11 13 18 11 8 -2 11
6 8 23 -4 21 -3 23 9 13 8 -7 20 -24 25 -38z m-1028 24 c3 -8 2 -12 -4 -9 -6
3 -10 10 -10 16 0 14 7 11 14 -7z m35 -60 c29 -49 26 -57 -4 -12 -14 20 -25
39 -25 42 0 13 9 4 29 -30z m1511 20 c0 -2 -9 -4 -20 -4 -11 0 -20 4 -20 9 0
5 9 7 20 4 11 -3 20 -7 20 -9z m-1465 -104 c9 -16 13 -30 11 -30 -3 0 -12 14
-21 30 -9 17 -13 30 -11 30 3 0 12 -13 21 -30z m360 0 c-3 -5 -12 -10 -18 -10
-7 0 -6 4 3 10 19 12 23 12 15 0z m111 -28 c21 -18 34 -32 28 -32 -6 0 -23 13
-39 30 -15 16 -32 27 -36 24 -4 -2 -10 0 -13 5 -12 19 22 4 60 -27z m-66 -2
c0 -5 -4 -10 -10 -10 -5 0 -10 5 -10 10 0 6 5 10 10 10 6 0 10 -4 10 -10z"/>
<path d="M2138 3575 c-2 -19 1 -36 7 -38 6 -3 9 10 7 34 -5 48 -9 49 -14 4z"/>
<path d="M1825 3396 c-30 -22 -12 -46 35 -46 22 0 57 -7 77 -15 48 -20 50 -19
22 11 -44 47 -106 71 -134 50z"/>
<path d="M1575 3378 c-43 -30 -95 -80 -95 -91 0 -5 11 0 25 11 14 11 48 26 76
33 54 14 74 30 65 54 -8 21 -36 18 -71 -7z"/>
<path d="M1824 3255 c-4 -9 -4 -46 -1 -83 4 -58 9 -70 35 -93 31 -28 68 -30
84 -5 11 16 10 74 -2 97 -9 15 -7 21 5 25 8 3 15 15 15 26 0 14 -5 18 -15 14
-8 -3 -14 0 -12 6 1 6 -7 12 -18 14 -11 2 -35 6 -52 10 -25 5 -34 2 -39 -11z
m64 -63 c2 -7 -4 -15 -13 -18 -20 -8 -27 -1 -19 20 7 18 25 17 32 -2z"/>
<path d="M1600 3245 c-7 -8 -26 -15 -42 -15 -17 0 -27 -4 -23 -10 3 -5 0 -10
-7 -10 -8 -1 -7 -6 5 -14 18 -14 18 -14 0 -19 -16 -4 -15 -6 4 -12 20 -6 22
-12 17 -44 -11 -78 72 -138 110 -78 38 60 25 181 -22 206 -26 14 -27 14 -42
-4z m46 -91 c-5 -13 -10 -14 -18 -6 -6 6 -18 8 -27 5 -9 -4 -6 3 8 16 27 23
48 15 37 -15z"/>
<path d="M1830 2950 c-8 -5 -27 -10 -42 -10 -44 0 -31 -29 19 -44 17 -5 29 -1
48 18 14 14 25 30 25 36 0 13 -30 13 -50 0z"/>
<path d="M1960 2816 c-25 -13 -68 -29 -97 -35 -60 -15 -179 -19 -208 -9 -11 4
-27 3 -35 -2 -13 -8 -13 -11 3 -27 10 -11 17 -13 17 -5 0 9 27 12 93 12 50 0
110 5 132 11 66 17 145 53 145 67 0 15 4 16 -50 -12z"/>
<path d="M1880 2724 c-14 -7 -44 -14 -67 -14 -25 0 -43 -5 -43 -11 0 -21 108
-5 133 19 24 25 15 27 -23 6z"/>
<path d="M2402 3045 c0 -16 2 -22 5 -12 2 9 2 23 0 30 -3 6 -5 -1 -5 -18z"/>
<path d="M1590 2286 c0 -2 7 -7 16 -10 8 -3 12 -2 9 4 -6 10 -25 14 -25 6z"/>
<path d="M2532 3790 c0 -14 2 -19 5 -12 2 6 2 18 0 25 -3 6 -5 1 -5 -13z"/>
<path d="M3222 3573 c9 -2 18 -12 20 -21 3 -13 5 -12 10 6 5 19 2 22 -20 21
-16 -1 -20 -3 -10 -6z"/>
<path d="M2808 3483 c6 -2 18 -2 25 0 6 3 1 5 -13 5 -14 0 -19 -2 -12 -5z"/>
<path d="M3425 3479 c-234 -51 -390 -107 -460 -164 -11 -8 18 3 64 26 354 174
762 178 1110 12 90 -43 251 -151 308 -206 100 -97 226 -312 277 -473 134 -432
24 -915 -283 -1237 -102 -108 -269 -229 -392 -285 -92 -42 -213 -79 -325 -98
-143 -24 -375 -15 -507 20 -333 89 -576 270 -727 543 -13 24 -25 41 -27 39 -6
-6 44 -93 98 -171 161 -234 471 -408 799 -449 445 -56 874 120 1166 479 120
147 217 366 250 565 19 114 18 336 -1 441 -9 46 -29 125 -46 174 -30 91 -111
262 -139 293 -8 10 -31 40 -50 67 -52 75 -58 81 -150 155 -222 178 -519 281
-800 279 -69 -1 -143 -5 -165 -10z"/>
<path d="M3549 3237 c-13 -12 -43 -44 -67 -70 -23 -26 -44 -47 -46 -47 -3 0
-21 29 -41 65 -28 51 -41 65 -59 65 -13 0 -28 -6 -33 -12 -15 -19 -39 -108
-63 -228 -12 -58 -32 -146 -45 -196 -12 -49 -28 -124 -35 -166 l-12 -76 -52 5
c-49 5 -54 4 -79 -27 -33 -38 -36 -95 -8 -155 21 -46 40 -65 95 -93 38 -18 41
-23 64 -108 35 -133 35 -135 10 -184 -17 -33 -30 -46 -48 -48 -69 -7 -93 -15
-123 -41 -17 -15 -54 -40 -80 -56 -55 -32 -56 -43 -2 -21 49 21 65 20 65 -2 0
-10 6 -27 14 -37 13 -18 13 -15 6 22 -8 46 5 84 30 90 10 3 11 2 4 -4 -13 -9
-4 -102 15 -147 12 -30 138 -162 147 -153 3 2 -19 29 -49 59 -67 67 -97 123
-97 182 0 45 16 69 30 46 11 -18 74 42 100 97 l22 47 32 -60 c50 -93 91 -148
155 -205 l58 -53 -32 -45 c-18 -25 -36 -57 -40 -71 -5 -16 4 -8 25 22 40 61
50 66 51 31 2 -38 2 -35 -5 -63 -6 -23 -5 -23 10 4 11 20 14 41 10 67 -4 24
-2 39 4 39 5 0 13 -18 16 -39 4 -28 10 -38 20 -34 8 3 14 1 14 -4 0 -10 60
-77 65 -72 2 2 -17 30 -41 62 -47 61 -55 84 -26 72 106 -45 178 -46 261 -4
108 54 215 167 296 314 102 184 132 263 194 511 22 87 63 226 91 307 74 213
78 287 15 244 -11 -8 -32 -22 -47 -31 l-26 -17 0 56 c1 61 -9 75 -50 75 -16 0
-42 -19 -78 -56 -30 -30 -59 -52 -64 -49 -6 3 -10 23 -10 44 0 58 -18 100 -47
107 -19 5 -38 -3 -83 -34 -32 -23 -63 -43 -69 -44 -7 -2 -26 24 -44 57 -45 84
-67 85 -147 9 l-60 -57 -10 29 c-20 57 -45 99 -61 102 -8 1 -26 -8 -40 -21z
m-209 -17 c0 -5 -7 -10 -16 -10 -8 0 -12 5 -9 10 3 6 10 10 16 10 5 0 9 -4 9
-10z m268 -15 c-3 -3 -9 2 -12 12 -6 14 -5 15 5 6 7 -7 10 -15 7 -18z m212 5
c0 -5 -2 -10 -4 -10 -3 0 -8 5 -11 10 -3 6 -1 10 4 10 6 0 11 -4 11 -10z m255
-50 c3 -6 -1 -7 -9 -4 -18 7 -21 14 -7 14 6 0 13 -4 16 -10z m210 -41 c11 -16
1 -19 -13 -3 -7 8 -8 14 -3 14 5 0 13 -5 16 -11z m-875 -164 c133 -7 206 -14
250 -25 19 -4 42 -8 50 -9 43 -3 115 -9 115 -11 0 -3 40 -11 115 -22 41 -6 78
-16 81 -21 4 -5 24 -10 45 -12 22 -2 39 -4 39 -5 0 -3 40 -11 83 -17 23 -3 42
-10 42 -14 0 -5 3 -8 8 -7 4 1 20 -4 35 -10 16 -7 35 -12 44 -12 10 0 13 -6
10 -17 -9 -29 -44 -161 -67 -253 -27 -107 -65 -233 -87 -285 -78 -190 -166
-337 -255 -423 -146 -144 -252 -168 -403 -92 -103 52 -193 153 -261 295 -39
81 -83 222 -84 268 0 9 -8 17 -17 17 -23 0 -100 51 -118 77 -43 62 -20 167 39
178 37 7 82 -8 114 -37 12 -12 22 -17 22 -11 0 5 -9 18 -20 28 -24 22 -23 39
16 220 46 218 44 212 73 209 14 -2 73 -6 131 -9z"/>
<path d="M3678 2635 c-70 -26 -124 -76 -60 -55 15 5 58 12 95 15 63 6 68 9 65
28 -4 27 -46 32 -100 12z"/>
<path d="M3917 2587 c-7 -19 2 -29 46 -56 21 -13 44 -36 53 -53 19 -37 28 -30
20 15 -12 64 -103 136 -119 94z"/>
<path d="M3062 2498 c-7 -7 -12 -19 -12 -27 1 -13 2 -13 11 2 11 19 18 21 38
8 12 -8 12 -12 -2 -25 -9 -9 -13 -24 -10 -33 5 -14 8 -13 14 5 9 24 30 23 59
-3 36 -32 21 3 -18 45 -40 42 -60 48 -80 28z"/>
<path d="M3655 2484 c-51 -55 -57 -164 -10 -186 13 -6 31 -8 39 -5 20 8 54 76
62 125 5 35 3 44 -19 66 -33 33 -42 32 -72 0z m60 -34 c10 -16 -3 -29 -25 -23
-16 4 -18 8 -9 19 14 17 25 18 34 4z"/>
<path d="M3882 2438 c-43 -54 -50 -149 -12 -183 48 -43 104 66 76 150 -14 44
-43 58 -64 33z m46 -55 c-2 -9 -13 -18 -25 -19 -26 -4 -28 1 -10 21 17 20 39
19 35 -2z"/>
<path d="M3700 2173 c0 -8 43 -67 55 -75 20 -15 60 -7 88 17 15 13 27 27 27
30 0 3 -21 3 -47 0 -37 -5 -57 -2 -85 13 -21 11 -38 18 -38 15z"/>
<path d="M3385 2109 c-9 -17 -14 -33 -12 -36 3 -2 11 5 17 17 11 20 14 18 41
-40 38 -82 81 -135 132 -164 98 -56 160 -49 228 26 21 23 39 47 39 52 0 4 8 6
19 3 10 -2 29 4 42 15 l24 18 -51 -6 c-65 -8 -210 11 -279 37 -66 24 -145 76
-145 95 0 27 -39 15 -55 -17z m324 -132 c82 -12 83 -13 62 -31 -12 -11 -21
-25 -21 -32 0 -20 -41 -44 -78 -44 -84 0 -198 95 -226 187 -7 21 0 19 87 -22
66 -32 118 -49 176 -58z"/>
<path d="M3556 1839 c17 -28 144 -55 144 -30 0 5 -20 9 -45 9 -25 0 -57 7 -70
16 -28 19 -39 20 -29 5z"/>
<path d="M4535 3230 c-3 -5 1 -10 9 -10 9 0 16 5 16 10 0 6 -4 10 -9 10 -6 0
-13 -4 -16 -10z"/>
<path d="M2865 2749 c-1 -181 -15 -267 -66 -418 -11 -30 -17 -56 -14 -59 10
-10 55 143 80 277 15 78 19 266 7 335 -4 22 -7 -38 -7 -135z"/>
<path d="M4820 2770 c0 -5 5 -10 11 -10 5 0 7 5 4 10 -3 6 -8 10 -11 10 -2 0
-4 -4 -4 -10z"/>
<path d="M190 2720 c0 -5 5 -10 10 -10 6 0 10 5 10 10 0 6 -4 10 -10 10 -5 0
-10 -4 -10 -10z"/>
<path d="M2340 2336 c0 -11 30 -39 36 -34 2 3 -5 13 -16 23 -11 10 -20 15 -20
11z"/>
<path d="M1662 2164 c-1 -33 3 -53 15 -66 16 -18 63 -25 63 -9 0 4 -11 6 -25
4 -44 -9 -61 68 -19 84 25 10 48 -10 55 -48 l6 -34 2 36 c1 44 -27 74 -63 67
-14 -3 -27 -1 -28 4 -2 5 -5 -12 -6 -38z"/>
<path d="M4842 1845 c0 -16 2 -22 5 -12 2 9 2 23 0 30 -3 6 -5 -1 -5 -18z"/>
<path d="M3020 1775 c0 -5 5 -17 10 -25 5 -8 10 -10 10 -5 0 6 -5 17 -10 25
-5 8 -10 11 -10 5z"/>
<path d="M650 1740 c0 -5 5 -10 10 -10 6 0 10 5 10 10 0 6 -4 10 -10 10 -5 0
-10 -4 -10 -10z"/>
<path d="M3250 1586 c0 -2 7 -7 16 -10 8 -3 12 -2 9 4 -6 10 -25 14 -25 6z"/>
<path d="M4365 1190 c-3 -5 -1 -10 4 -10 6 0 11 5 11 10 0 6 -2 10 -4 10 -3 0
-8 -4 -11 -10z"/>
<path d="M4260 1108 c0 -4 9 -8 20 -8 11 0 20 4 20 9 0 6 -9 9 -20 8 -11 -1
-20 -5 -20 -9z"/>
<path d="M4120 1030 l-25 -8 28 -1 c15 -1 27 4 27 9 0 6 -1 10 -2 9 -2 -1 -14
-5 -28 -9z"/>
<path d="M3000 1010 c0 -5 5 -10 11 -10 5 0 7 5 4 10 -3 6 -8 10 -11 10 -2 0
-4 -4 -4 -10z"/>
<path d="M5590 2625 c0 -9 5 -15 11 -13 6 2 11 8 11 13 0 5 -5 11 -11 13 -6 2
-11 -4 -11 -13z"/>
<path d="M5588 2543 c6 -2 18 -2 25 0 6 3 1 5 -13 5 -14 0 -19 -2 -12 -5z"/>
<path d="M5940 2590 c0 -5 4 -10 9 -10 6 0 13 5 16 10 3 6 -1 10 -9 10 -9 0
-16 -4 -16 -10z"/>
<path d="M6340 2590 c0 -5 7 -10 15 -10 8 0 15 5 15 10 0 6 -7 10 -15 10 -8 0
-15 -4 -15 -10z"/>
<path d="M6000 2380 c0 -48 1 -50 20 -40 13 7 20 21 20 40 0 19 -7 33 -20 40
-19 10 -20 8 -20 -40z"/>
<path d="M6127 2384 c-4 -4 -7 -18 -7 -31 0 -18 5 -24 18 -21 10 2 17 12 17
27 0 24 -15 37 -28 25z"/>
<path d="M6234 2375 c-6 -15 11 -45 26 -45 12 0 20 28 14 45 -8 19 -33 19 -40
0z"/>
<path d="M5460 2380 c0 -5 5 -10 10 -10 6 0 10 5 10 10 0 6 -4 10 -10 10 -5 0
-10 -4 -10 -10z"/>
<path d="M6428 2383 c7 -3 16 -2 19 1 4 3 -2 6 -13 5 -11 0 -14 -3 -6 -6z"/>
<path d="M4701 841 c-1 -58 1 -71 14 -71 12 0 15 12 15 56 0 52 1 55 23 52 19
-3 22 -10 25 -55 4 -62 17 -69 26 -15 11 69 8 79 -23 85 -16 3 -40 9 -53 12
-25 6 -25 6 -27 -64z"/>
<path d="M4617 894 c-3 -3 -3 -13 0 -21 5 -12 7 -12 14 -1 15 23 4 40 -14 22z"/>
<path d="M4635 793 c-10 -18 -26 -33 -33 -33 -9 0 -12 -6 -8 -16 3 -9 6 -30 6
-47 0 -29 5 -34 45 -48 l45 -17 0 64 c0 49 -3 64 -14 64 -9 0 -16 12 -18 33
l-3 32 -20 -32z"/>
<path d="M2171 817 c-48 -24 -136 -98 -152 -128 -16 -30 18 -38 38 -9 24 34
69 72 125 105 84 50 74 76 -11 32z"/>
<path d="M2569 822 c5 -10 30 -29 55 -42 25 -12 68 -45 96 -73 39 -38 54 -47
62 -39 17 17 -69 103 -142 141 -67 36 -85 39 -71 13z"/>
<path d="M2170 769 c-45 -27 -110 -89 -110 -106 0 -20 14 -16 40 12 13 14 47
41 77 62 29 20 53 40 53 45 0 14 -23 9 -60 -13z"/>
<path d="M2252 765 c0 -16 2 -22 5 -12 2 9 2 23 0 30 -3 6 -5 -1 -5 -18z"/>
<path d="M2576 777 c3 -8 22 -23 42 -35 20 -11 55 -37 76 -57 23 -21 43 -32
48 -27 11 11 -72 86 -124 113 -44 23 -49 23 -42 6z"/>
<path d="M2158 710 c-56 -39 -79 -70 -54 -70 7 0 23 11 35 24 12 13 38 32 57
42 18 10 34 24 34 31 0 21 -13 16 -72 -27z"/>
<path d="M2570 741 c0 -6 25 -26 55 -46 30 -21 55 -41 55 -46 0 -5 7 -9 15 -9
33 0 5 34 -70 84 -42 28 -55 32 -55 17z"/>
<path d="M4198 505 c-15 -34 0 -80 27 -80 16 0 21 8 23 44 2 28 -1 47 -10 52
-21 14 -28 11 -40 -16z"/>
<path d="M4788 481 c-2 -41 0 -51 15 -55 15 -3 17 3 17 50 0 40 -4 54 -14 54
-10 0 -15 -15 -18 -49z"/>
<path d="M4860 475 c0 -44 3 -53 15 -49 11 4 15 21 15 55 0 37 -4 49 -15 49
-12 0 -15 -13 -15 -55z"/>
<path d="M5020 508 c0 -17 2 -18 15 -8 8 7 15 14 15 15 0 2 -7 5 -15 9 -10 4
-15 -1 -15 -16z"/>
<path d="M5150 510 c0 -13 7 -20 20 -20 13 0 20 7 20 20 0 13 -7 20 -20 20
-13 0 -20 -7 -20 -20z"/>
<path d="M5319 528 c-4 -16 -8 -68 -5 -68 2 0 13 16 25 35 20 34 20 35 1 35
-11 0 -20 -1 -21 -2z"/>
<path d="M5339 463 c-7 -16 -15 -31 -17 -35 -2 -5 6 -8 17 -8 17 0 21 6 21 35
0 42 -3 43 -21 8z"/>
<path d="M5484 515 c-9 -22 1 -29 15 -11 8 10 9 16 1 21 -5 3 -13 -1 -16 -10z"/>
<path d="M5480 451 c0 -12 6 -21 15 -21 8 0 15 4 15 9 0 5 -7 14 -15 21 -13
10 -15 9 -15 -9z"/>
<path d="M4080 506 c0 -14 5 -26 10 -26 6 0 10 9 10 19 0 11 -4 23 -10 26 -6
4 -10 -5 -10 -19z"/>
<path d="M4520 511 c0 -12 5 -21 10 -21 6 0 10 6 10 14 0 8 -4 18 -10 21 -5 3
-10 -3 -10 -14z"/>
<path d="M4520 445 c0 -17 5 -25 13 -22 6 2 12 12 12 22 0 10 -6 20 -12 23 -8
2 -13 -6 -13 -23z"/>
<path d="M2360 440 c0 -16 5 -30 10 -30 6 0 10 14 10 30 0 17 -4 30 -10 30 -5
0 -10 -13 -10 -30z"/>
<path d="M2580 370 c0 -22 5 -40 10 -40 6 0 10 18 10 40 0 22 -4 40 -10 40 -5
0 -10 -18 -10 -40z"/>
<path d="M3162 395 c0 -16 2 -22 5 -12 2 9 2 23 0 30 -3 6 -5 -1 -5 -18z"/>
<path d="M2888 388 c-2 -13 -1 -34 3 -48 5 -19 7 -14 8 23 1 50 -4 62 -11 25z"/>
<path d="M3057 403 c-11 -10 -8 -71 3 -78 6 -4 10 12 10 39 0 47 -2 51 -13 39z"/>
<path d="M3145 280 c3 -5 12 -10 20 -10 8 0 17 5 20 10 4 6 -5 10 -20 10 -15
0 -24 -4 -20 -10z"/>
<path d="M1850 370 c0 -22 5 -40 10 -40 6 0 10 18 10 40 0 22 -4 40 -10 40 -5
0 -10 -18 -10 -40z"/>
<path d="M1740 330 c0 -5 5 -10 10 -10 6 0 10 5 10 10 0 6 -4 10 -10 10 -5 0
-10 -4 -10 -10z"/>
<path d="M2041 404 c0 -11 3 -14 6 -6 3 7 2 16 -1 19 -3 4 -6 -2 -5 -13z"/>
<path d="M2120 412 c0 -5 7 -13 16 -16 10 -4 14 -1 12 6 -5 15 -28 23 -28 10z"/>
<path d="M5490 296 c0 -8 5 -18 10 -21 6 -3 10 3 10 14 0 12 -4 21 -10 21 -5
0 -10 -6 -10 -14z"/>
<path d="M4181 294 c0 -11 3 -14 6 -6 3 7 2 16 -1 19 -3 4 -6 -2 -5 -13z"/>
</g>
</svg>
